<svg width="49" height="49" viewBox="0 0 49 49" fill="none" xmlns="http://www.w3.org/2000/svg">
<g clip-path="url(#clip0_206_749)">
<path d="M8.16602 10.2082C8.16602 9.66669 8.38112 9.14738 8.76401 8.76449C9.14689 8.38161 9.6662 8.1665 10.2077 8.1665H18.3743C18.9158 8.1665 19.4351 8.38161 19.818 8.76449C20.2009 9.14738 20.416 9.66669 20.416 10.2082V18.3748C20.416 18.9163 20.2009 19.4356 19.818 19.8185C19.4351 20.2014 18.9158 20.4165 18.3743 20.4165H10.2077C9.6662 20.4165 9.14689 20.2014 8.76401 19.8185C8.38112 19.4356 8.16602 18.9163 8.16602 18.3748V10.2082Z" stroke="#42BB89" stroke-width="2.5" stroke-linecap="round" stroke-linejoin="round"/>
<path d="M8.16602 30.6252C8.16602 30.0837 8.38112 29.5644 8.76401 29.1815C9.14689 28.7986 9.6662 28.5835 10.2077 28.5835H18.3743C18.9158 28.5835 19.4351 28.7986 19.818 29.1815C20.2009 29.5644 20.416 30.0837 20.416 30.6252V38.7918C20.416 39.3333 20.2009 39.8526 19.818 40.2355C19.4351 40.6184 18.9158 40.8335 18.3743 40.8335H10.2077C9.6662 40.8335 9.14689 40.6184 8.76401 40.2355C8.38112 39.8526 8.16602 39.3333 8.16602 38.7918V30.6252Z" stroke="#42BB89" stroke-width="2.5" stroke-linecap="round" stroke-linejoin="round"/>
<path d="M28.584 30.6252C28.584 30.0837 28.7991 29.5644 29.182 29.1815C29.5649 28.7986 30.0842 28.5835 30.6257 28.5835H38.7923C39.3338 28.5835 39.8531 28.7986 40.236 29.1815C40.6189 29.5644 40.834 30.0837 40.834 30.6252V38.7918C40.834 39.3333 40.6189 39.8526 40.236 40.2355C39.8531 40.6184 39.3338 40.8335 38.7923 40.8335H30.6257C30.0842 40.8335 29.5649 40.6184 29.182 40.2355C28.7991 39.8526 28.584 39.3333 28.584 38.7918V30.6252Z" stroke="#42BB89" stroke-width="2.5" stroke-linecap="round" stroke-linejoin="round"/>
<path d="M28.584 14.2915H40.834" stroke="#42BB89" stroke-width="2.5" stroke-linecap="round" stroke-linejoin="round"/>
<path d="M34.709 8.1665V20.4165" stroke="#42BB89" stroke-width="2.5" stroke-linecap="round" stroke-linejoin="round"/>
</g>
<defs>
<clipPath id="clip0_206_749">
<rect width="49" height="49" fill="white"/>
</clipPath>
</defs>
</svg>
