<svg width="21" height="22" viewBox="0 0 21 22" fill="none" xmlns="http://www.w3.org/2000/svg">
<path d="M10.8758 1.00889C11.0207 1.00889 11.1645 1.00889 11.3072 1.00889C9.89716 2.33523 8.99083 4.11983 8.74574 6.05247C8.50065 7.98511 8.9323 9.94359 9.96564 11.5875C10.999 13.2314 12.5687 14.4567 14.4019 15.0505C16.2351 15.6443 18.2159 15.5691 20 14.8378C19.3137 16.5094 18.1921 17.9611 16.7547 19.0381C15.3173 20.115 13.6181 20.7767 11.8383 20.9527C10.0585 21.1286 8.26497 20.8122 6.64893 20.0371C5.03288 19.2621 3.65498 18.0574 2.66219 16.5518C1.66941 15.0461 1.09898 13.2959 1.01176 11.4877C0.924539 9.67962 1.3238 7.88144 2.16695 6.28501C3.01009 4.68859 4.2655 3.3538 5.79926 2.42304C7.33302 1.49227 9.0876 1.00044 10.8758 1V1.00889Z" stroke="white" stroke-width="1.3" stroke-linecap="round" stroke-linejoin="round"/>
</svg>
