<svg width="52" height="52" viewBox="0 0 52 52" fill="none" xmlns="http://www.w3.org/2000/svg">
<g clip-path="url(#clip0_206_743)">
<path d="M6.5 10.8333C6.5 9.68406 6.95655 8.58186 7.7692 7.7692C8.58186 6.95655 9.68406 6.5 10.8333 6.5H41.1667C42.3159 6.5 43.4181 6.95655 44.2308 7.7692C45.0435 8.58186 45.5 9.68406 45.5 10.8333V41.1667C45.5 42.3159 45.0435 43.4181 44.2308 44.2308C43.4181 45.0435 42.3159 45.5 41.1667 45.5H10.8333C9.68406 45.5 8.58186 45.0435 7.7692 44.2308C6.95655 43.4181 6.5 42.3159 6.5 41.1667V10.8333Z" stroke="#42BB89" stroke-width="2.5" stroke-linecap="round" stroke-linejoin="round"/>
<path d="M19.4993 36.8335H15.166" stroke="#42BB89" stroke-width="2.5" stroke-linecap="round" stroke-linejoin="round"/>
<path d="M28.166 30.3335H15.166" stroke="#42BB89" stroke-width="2.5" stroke-linecap="round" stroke-linejoin="round"/>
<path d="M23.8327 23.8335H15.166" stroke="#42BB89" stroke-width="2.5" stroke-linecap="round" stroke-linejoin="round"/>
</g>
<defs>
<clipPath id="clip0_206_743">
<rect width="52" height="52" fill="white"/>
</clipPath>
</defs>
</svg>
