<svg width="705" height="685" viewBox="0 0 705 685" fill="none" xmlns="http://www.w3.org/2000/svg">
<path d="M340.829 181.76L341.11 181.91C346.297 184.691 349.519 190.938 349.519 199.908C349.519 200.901 349.472 201.909 349.399 202.918C349.394 203.001 349.384 203.079 349.379 203.157C349.389 203.157 349.405 203.151 349.415 203.141C359.357 198.022 367.252 202.964 367.252 214.601C367.252 226.632 358.806 241.263 348.386 247.286L292.355 279.628C286.415 283.064 281.02 283.459 277.06 281.328L276.93 281.26" stroke="#21214B" stroke-opacity="0.07" stroke-miterlimit="10" stroke-linecap="round" stroke-linejoin="round"/>
<path d="M340.828 181.76C337.839 180.252 334.217 179.863 330.205 180.741C327.622 181.297 324.872 182.383 322.019 184.031C308.008 192.118 296.454 210.885 294.744 227.516C293.959 227.874 293.159 228.28 292.354 228.742C280.187 235.769 270.323 252.857 270.323 266.905C270.323 268.719 270.489 270.387 270.796 271.91C271.71 276.375 273.888 279.576 276.928 281.26L259.299 271.796C255.142 269.571 252.559 264.567 252.559 257.374C252.559 255.866 252.673 254.328 252.886 252.769C253.749 246.579 256.249 240.098 259.809 234.324C263.717 227.978 268.904 222.495 274.595 219.211C275.4 218.743 276.195 218.337 276.98 217.979C278.69 201.353 290.244 182.586 304.25 174.499C311.672 170.211 318.402 169.718 323.344 172.373L323.402 172.405L340.828 181.76Z" stroke="#21214B" stroke-opacity="0.07" stroke-miterlimit="10" stroke-linecap="round" stroke-linejoin="round"/>
<path d="M346.941 299.211C347.316 298.12 348.241 297.075 349.706 296.228C353.641 293.962 360.023 293.962 363.962 296.228C365.428 297.075 366.348 298.12 366.722 299.211" stroke="#21214B" stroke-opacity="0.07" stroke-miterlimit="10" stroke-linecap="round" stroke-linejoin="round"/>
<path d="M366.908 300.204V300.485" stroke="#21214B" stroke-opacity="0.07" stroke-miterlimit="10" stroke-linecap="round" stroke-linejoin="round"/>
<path d="M346.942 299.211C346.812 299.586 346.75 299.965 346.75 300.344V299.211H346.942Z" stroke="#21214B" stroke-opacity="0.07" stroke-miterlimit="10" stroke-linecap="round" stroke-linejoin="round"/>
<path d="M366.721 299.211H366.908V300.204C366.897 299.871 366.835 299.539 366.721 299.211Z" stroke="#21214B" stroke-opacity="0.07" stroke-miterlimit="10" stroke-linecap="round" stroke-linejoin="round"/>
<path d="M376.518 259.91C376.892 258.819 377.812 257.774 379.282 256.927C383.217 254.656 389.599 254.656 393.538 256.927C394.999 257.774 395.924 258.819 396.298 259.91" stroke="#21214B" stroke-opacity="0.07" stroke-miterlimit="10" stroke-linecap="round" stroke-linejoin="round"/>
<path d="M376.518 259.91C376.389 260.284 376.326 260.664 376.326 261.043V259.91H376.518Z" stroke="#21214B" stroke-opacity="0.07" stroke-miterlimit="10" stroke-linecap="round" stroke-linejoin="round"/>
<path d="M396.297 259.91H396.489V261.043C396.489 260.664 396.427 260.284 396.297 259.91Z" stroke="#21214B" stroke-opacity="0.07" stroke-miterlimit="10" stroke-linecap="round" stroke-linejoin="round"/>
<path d="M406.096 280.319C406.47 279.228 407.395 278.183 408.861 277.336C412.795 275.065 419.177 275.065 423.117 277.336C424.582 278.183 425.502 279.228 425.876 280.319" stroke="#21214B" stroke-opacity="0.07" stroke-miterlimit="10" stroke-linecap="round" stroke-linejoin="round"/>
<path d="M405.91 281.593V281.312" stroke="#21214B" stroke-opacity="0.07" stroke-miterlimit="10" stroke-linecap="round" stroke-linejoin="round"/>
<path d="M406.097 280.319C405.988 280.647 405.921 280.979 405.91 281.312V280.319H406.097Z" stroke="#21214B" stroke-opacity="0.07" stroke-miterlimit="10" stroke-linecap="round" stroke-linejoin="round"/>
<path d="M425.875 280.319H426.067V281.452C426.067 281.073 426.005 280.694 425.875 280.319Z" stroke="#21214B" stroke-opacity="0.07" stroke-miterlimit="10" stroke-linecap="round" stroke-linejoin="round"/>
<path d="M346.75 342.088V300.344C346.75 301.836 347.737 303.322 349.707 304.46C353.641 306.732 360.024 306.732 363.963 304.46C365.87 303.353 366.853 301.929 366.91 300.485V330.446" stroke="#21214B" stroke-opacity="0.07" stroke-miterlimit="10" stroke-linecap="round" stroke-linejoin="round"/>
<path d="M366.91 362.929L356.079 369.187C353.527 370.652 350.253 371.505 346.75 371.733" stroke="#21214B" stroke-opacity="0.07" stroke-miterlimit="10" stroke-linecap="round" stroke-linejoin="round"/>
<path d="M346.749 371.733C341.011 372.123 334.655 370.881 329.832 368.095C325.581 365.642 323.408 362.508 323.408 359.53C323.408 357.062 324.9 354.707 327.945 352.945L346.749 342.088V371.733Z" stroke="#21214B" stroke-opacity="0.07" stroke-miterlimit="10" stroke-linecap="round" stroke-linejoin="round"/>
<path d="M376.326 325.015V261.043C376.326 262.535 377.308 264.021 379.283 265.154C383.218 267.43 389.6 267.43 393.539 265.154C395.504 264.021 396.491 262.535 396.491 261.043V313.368" stroke="#21214B" stroke-opacity="0.07" stroke-miterlimit="10" stroke-linecap="round" stroke-linejoin="round"/>
<path d="M396.491 345.851L376.326 357.498" stroke="#21214B" stroke-opacity="0.07" stroke-miterlimit="10" stroke-linecap="round" stroke-linejoin="round"/>
<path d="M366.908 330.447L376.326 325.016V357.498L366.908 362.929V330.447Z" stroke="#21214B" stroke-opacity="0.07" stroke-miterlimit="10" stroke-linecap="round" stroke-linejoin="round"/>
<path d="M405.91 307.932V281.593C405.967 283.038 406.955 284.462 408.862 285.569C412.796 287.84 419.179 287.84 423.118 285.569C425.088 284.431 426.07 282.944 426.07 281.453V299.134" stroke="#21214B" stroke-opacity="0.07" stroke-miterlimit="10" stroke-linecap="round" stroke-linejoin="round"/>
<path d="M426.07 328.778L405.91 340.415" stroke="#21214B" stroke-opacity="0.07" stroke-miterlimit="10" stroke-linecap="round" stroke-linejoin="round"/>
<path d="M396.494 313.368L405.911 307.932V340.415L396.494 345.851V313.368Z" stroke="#21214B" stroke-opacity="0.07" stroke-miterlimit="10" stroke-linecap="round" stroke-linejoin="round"/>
<path d="M426.07 299.133C431.808 298.744 438.169 299.986 442.992 302.771C447.239 305.225 449.411 308.358 449.411 311.336C449.411 313.805 447.919 316.159 444.874 317.921L426.07 328.778V299.133Z" stroke="#21214B" stroke-opacity="0.07" stroke-miterlimit="10" stroke-linecap="round" stroke-linejoin="round"/>
<path d="M288.829 599.37C288.455 598.274 287.53 597.234 286.07 596.387C282.13 594.116 275.748 594.116 271.814 596.387C270.343 597.234 269.423 598.274 269.049 599.37" stroke="#21214B" stroke-opacity="0.07" stroke-miterlimit="10" stroke-linecap="round" stroke-linejoin="round"/>
<path d="M268.863 600.363V600.644" stroke="#21214B" stroke-opacity="0.07" stroke-miterlimit="10" stroke-linecap="round" stroke-linejoin="round"/>
<path d="M288.83 599.371C288.96 599.745 289.022 600.119 289.022 600.504V599.371H288.83Z" stroke="#21214B" stroke-opacity="0.07" stroke-miterlimit="10" stroke-linecap="round" stroke-linejoin="round"/>
<path d="M269.05 599.371H268.863V600.363C268.874 600.031 268.936 599.698 269.05 599.371Z" stroke="#21214B" stroke-opacity="0.07" stroke-miterlimit="10" stroke-linecap="round" stroke-linejoin="round"/>
<path d="M259.253 570.463C258.879 569.367 257.959 568.327 256.493 567.48C252.554 565.204 246.172 565.204 242.238 567.48C240.772 568.327 239.847 569.367 239.473 570.463" stroke="#21214B" stroke-opacity="0.07" stroke-miterlimit="10" stroke-linecap="round" stroke-linejoin="round"/>
<path d="M259.254 570.463C259.384 570.838 259.446 571.212 259.446 571.596V570.463H259.254Z" stroke="#21214B" stroke-opacity="0.07" stroke-miterlimit="10" stroke-linecap="round" stroke-linejoin="round"/>
<path d="M239.474 570.463H239.281V571.596C239.281 571.212 239.344 570.838 239.474 570.463Z" stroke="#21214B" stroke-opacity="0.07" stroke-miterlimit="10" stroke-linecap="round" stroke-linejoin="round"/>
<path d="M229.675 549.295C229.301 548.199 228.376 547.159 226.915 546.312C222.976 544.036 216.594 544.036 212.659 546.312C211.189 547.159 210.269 548.199 209.895 549.295" stroke="#21214B" stroke-opacity="0.07" stroke-miterlimit="10" stroke-linecap="round" stroke-linejoin="round"/>
<path d="M229.865 550.564V550.288" stroke="#21214B" stroke-opacity="0.07" stroke-miterlimit="10" stroke-linecap="round" stroke-linejoin="round"/>
<path d="M229.676 549.295C229.785 549.623 229.852 549.955 229.863 550.288V549.295H229.676Z" stroke="#21214B" stroke-opacity="0.07" stroke-miterlimit="10" stroke-linecap="round" stroke-linejoin="round"/>
<path d="M209.895 549.295H209.703V550.428C209.703 550.044 209.766 549.67 209.895 549.295Z" stroke="#21214B" stroke-opacity="0.07" stroke-miterlimit="10" stroke-linecap="round" stroke-linejoin="round"/>
<path d="M289.023 642.247V600.503C289.023 601.995 288.036 603.481 286.071 604.614C282.132 606.891 275.75 606.891 271.815 604.614C269.903 603.513 268.92 602.089 268.863 600.644V630.606" stroke="#21214B" stroke-opacity="0.07" stroke-miterlimit="10" stroke-linecap="round" stroke-linejoin="round"/>
<path d="M268.863 663.088L279.694 669.341C282.251 670.811 285.52 671.659 289.023 671.892" stroke="#21214B" stroke-opacity="0.07" stroke-miterlimit="10" stroke-linecap="round" stroke-linejoin="round"/>
<path d="M289.023 671.892C294.761 672.282 301.123 671.04 305.946 668.254C310.192 665.801 312.364 662.667 312.364 659.689C312.364 657.22 310.872 654.866 307.827 653.099L289.023 642.247V671.892Z" stroke="#21214B" stroke-opacity="0.07" stroke-miterlimit="10" stroke-linecap="round" stroke-linejoin="round"/>
<path d="M259.446 625.169V571.597C259.446 573.088 258.464 574.569 256.494 575.708C252.555 577.984 246.173 577.984 242.238 575.708C240.269 574.569 239.281 573.088 239.281 571.597V613.528" stroke="#21214B" stroke-opacity="0.07" stroke-miterlimit="10" stroke-linecap="round" stroke-linejoin="round"/>
<path d="M239.281 646.01L259.446 657.652" stroke="#21214B" stroke-opacity="0.07" stroke-miterlimit="10" stroke-linecap="round" stroke-linejoin="round"/>
<path d="M268.863 630.606L259.445 625.169V657.652L268.863 663.088V630.606Z" stroke="#21214B" stroke-opacity="0.07" stroke-miterlimit="10" stroke-linecap="round" stroke-linejoin="round"/>
<path d="M229.863 608.091V550.563C229.806 552.008 228.818 553.437 226.916 554.539C222.977 556.816 216.595 556.816 212.66 554.539C210.685 553.401 209.703 551.92 209.703 550.428V599.287" stroke="#21214B" stroke-opacity="0.07" stroke-miterlimit="10" stroke-linecap="round" stroke-linejoin="round"/>
<path d="M209.703 628.932L229.863 640.574" stroke="#21214B" stroke-opacity="0.07" stroke-miterlimit="10" stroke-linecap="round" stroke-linejoin="round"/>
<path d="M239.283 613.528L229.865 608.091V640.574L239.283 646.01V613.528Z" stroke="#21214B" stroke-opacity="0.07" stroke-miterlimit="10" stroke-linecap="round" stroke-linejoin="round"/>
<path d="M209.702 599.288C203.964 598.898 197.608 600.145 192.785 602.926C188.534 605.379 186.361 608.518 186.361 611.496C186.361 613.959 187.853 616.319 190.898 618.081L209.702 628.932V599.288Z" stroke="#21214B" stroke-opacity="0.07" stroke-miterlimit="10" stroke-linecap="round" stroke-linejoin="round"/>
<path d="M248.461 340.794L262.104 332.92C262.197 332.868 262.286 332.811 262.374 332.754" stroke="#21214B" stroke-opacity="0.07" stroke-miterlimit="10" stroke-linecap="round" stroke-linejoin="round"/>
<path d="M228.594 349.775C231 349.92 233.365 349.51 235.064 348.528L238.562 346.506" stroke="#21214B" stroke-opacity="0.07" stroke-miterlimit="10" stroke-linecap="round" stroke-linejoin="round"/>
<path d="M225.742 349.349C226.657 349.572 227.598 349.718 228.538 349.775" stroke="#21214B" stroke-opacity="0.07" stroke-miterlimit="10" stroke-linecap="round" stroke-linejoin="round"/>
<path d="M223.1 348.418C223.375 348.548 223.661 348.673 223.947 348.782C224.238 348.897 224.534 349.001 224.83 349.094" stroke="#21214B" stroke-opacity="0.07" stroke-miterlimit="10" stroke-linecap="round" stroke-linejoin="round"/>
<path d="M196.139 332.816C196.43 333.04 196.747 333.248 197.095 333.45L217.697 345.342" stroke="#21214B" stroke-opacity="0.07" stroke-miterlimit="10" stroke-linecap="round" stroke-linejoin="round"/>
<path d="M194.285 330.649C194.322 330.738 194.368 330.831 194.42 330.92C194.467 331.013 194.519 331.102 194.576 331.19C194.691 331.372 194.82 331.549 194.971 331.725C195.044 331.814 195.122 331.902 195.205 331.985C195.278 332.068 195.356 332.146 195.439 332.224" stroke="#21214B" stroke-opacity="0.07" stroke-miterlimit="10" stroke-linecap="round" stroke-linejoin="round"/>
<path d="M194.059 330.005C194.069 330.057 194.085 330.109 194.095 330.156C194.111 330.208 194.126 330.254 194.147 330.301" stroke="#21214B" stroke-opacity="0.07" stroke-miterlimit="10" stroke-linecap="round" stroke-linejoin="round"/>
<path d="M264.312 329.719V351.012C264.312 352.213 263.584 353.356 262.103 354.214L235.067 369.821C231.793 371.712 226.076 371.473 222.297 369.296L197.096 354.744C195.033 353.548 193.973 352.025 193.973 350.575V330.384V329.277C193.973 329.418 193.983 329.563 194.004 329.704C194.009 329.745 194.014 329.781 194.025 329.818" stroke="#21214B" stroke-opacity="0.07" stroke-miterlimit="10" stroke-linecap="round" stroke-linejoin="round"/>
<path d="M194.004 329.704C194.196 328.394 195.241 327.048 197.101 325.982L217.703 314.086L222.297 311.43C226.081 309.247 231.793 309.013 235.067 310.905L240.586 314.086L262.103 326.512C263.584 327.365 264.312 328.513 264.312 329.714V329.719C264.312 330.842 263.672 331.923 262.373 332.754C262.285 332.806 262.196 332.863 262.103 332.915L248.46 340.794L240.586 345.342L238.565 346.506L235.067 348.523C233.362 349.505 231.003 349.915 228.596 349.775C228.576 349.775 228.56 349.77 228.539 349.775C227.599 349.713 226.658 349.572 225.743 349.349C225.431 349.271 225.13 349.188 224.828 349.094C224.527 349.001 224.236 348.897 223.945 348.782C223.654 348.673 223.373 348.549 223.098 348.419C222.822 348.289 222.557 348.148 222.297 347.998L217.703 345.342H217.698L197.101 333.445C196.753 333.243 196.431 333.035 196.14 332.817C195.88 332.624 195.646 332.427 195.438 332.224C195.355 332.146 195.277 332.068 195.204 331.985C195.121 331.902 195.043 331.814 194.971 331.725C194.82 331.548 194.69 331.372 194.576 331.19C194.518 331.102 194.461 331.008 194.42 330.92C194.368 330.831 194.321 330.738 194.285 330.649C194.227 330.535 194.186 330.421 194.149 330.301C194.129 330.254 194.113 330.202 194.097 330.156C194.087 330.104 194.071 330.057 194.061 330.005C194.045 329.943 194.03 329.88 194.025 329.818C194.014 329.781 194.009 329.75 194.004 329.714C194.004 329.709 194.004 329.709 194.004 329.704Z" stroke="#21214B" stroke-opacity="0.07" stroke-miterlimit="10" stroke-linecap="round" stroke-linejoin="round"/>
<path d="M241.767 329.714C241.767 330.145 241.507 330.561 240.977 330.862L233.254 335.322L231.274 336.465C230.099 337.141 228.052 337.057 226.695 336.273L225.048 335.322L217.657 331.055C216.987 330.67 216.612 330.187 216.545 329.714C216.612 329.246 216.987 328.763 217.657 328.378L225.048 324.111L226.695 323.155C228.052 322.375 230.099 322.287 231.274 322.968L233.254 324.111L240.977 328.565C241.507 328.872 241.767 329.282 241.767 329.714Z" stroke="#21214B" stroke-opacity="0.07" stroke-miterlimit="10" stroke-linecap="round" stroke-linejoin="round"/>
<path d="M486.238 172.27C486.358 172.394 486.493 172.524 486.633 172.644C486.924 172.893 487.257 173.132 487.642 173.351L502.864 182.139" stroke="#21214B" stroke-opacity="0.07" stroke-miterlimit="10" stroke-linecap="round" stroke-linejoin="round"/>
<path d="M537.298 170.591V194.004C537.298 194.893 536.763 195.74 535.666 196.369L515.693 207.901C513.272 209.3 509.051 209.123 506.255 207.512L487.639 196.764C486.111 195.88 485.326 194.753 485.326 193.682V170.269" stroke="#21214B" stroke-opacity="0.07" stroke-miterlimit="10" stroke-linecap="round" stroke-linejoin="round"/>
<path d="M501.699 159.391L506.938 156.366C509.355 154.973 513.58 155.145 516.371 156.761L520.929 159.391" stroke="#21214B" stroke-opacity="0.07" stroke-miterlimit="10" stroke-linecap="round" stroke-linejoin="round"/>
<path d="M527.772 163.346L534.985 167.509C536.513 168.393 537.298 169.52 537.298 170.591C537.298 171.48 536.763 172.327 535.666 172.956L519.768 182.139L515.688 184.488C513.272 185.886 509.051 185.715 506.255 184.098L502.862 182.139L487.639 173.345C487.254 173.122 486.922 172.888 486.631 172.644C486.49 172.519 486.355 172.394 486.236 172.27C485.633 171.63 485.326 170.939 485.326 170.269C485.326 169.375 485.867 168.533 486.958 167.899L494.853 163.341" stroke="#21214B" stroke-opacity="0.07" stroke-miterlimit="10" stroke-linecap="round" stroke-linejoin="round"/>
<path d="M501.709 137.792C502.733 133.436 506.646 130.193 511.313 130.193C515.986 130.193 519.899 133.436 520.928 137.792" stroke="#21214B" stroke-opacity="0.07" stroke-miterlimit="10" stroke-linecap="round" stroke-linejoin="round"/>
<path d="M520.439 143.872C518.947 147.443 515.423 149.953 511.312 149.953C507.207 149.953 503.678 147.443 502.191 143.872" stroke="#21214B" stroke-opacity="0.07" stroke-miterlimit="10" stroke-linecap="round" stroke-linejoin="round"/>
<path d="M520.926 137.792C524.117 138.524 527.105 139.631 529.688 141.123C539.833 146.98 539.833 156.481 529.688 162.343C529.07 162.702 528.43 163.029 527.77 163.346C518.218 167.862 504.399 167.862 494.851 163.341C494.191 163.029 493.552 162.696 492.939 162.343C482.789 156.481 482.789 146.98 492.939 141.123C495.522 139.631 498.515 138.524 501.706 137.792C501.53 138.524 501.436 139.288 501.436 140.073C501.436 141.424 501.706 142.703 502.19 143.872C501.322 144.21 500.511 144.626 499.726 145.042C492.585 148.841 492.596 154.833 499.726 158.424C500.366 158.747 501.005 159.105 501.696 159.391C507.413 161.792 515.209 161.792 520.926 159.391C521.617 159.105 522.261 158.757 522.895 158.424C529.917 154.724 530 148.732 522.895 145.042C522.111 144.636 521.305 144.21 520.437 143.872C520.926 142.703 521.191 141.424 521.191 140.073C521.191 139.288 521.102 138.524 520.926 137.792Z" stroke="#21214B" stroke-opacity="0.07" stroke-miterlimit="10" stroke-linecap="round" stroke-linejoin="round"/>
<path d="M91.94 285.054L91.7321 285.174C85.2616 288.911 75.5064 288.037 64.5975 281.733C51.6045 274.234 40.259 260.939 34.1367 247.374C35.119 246.325 36.2364 245.446 37.4733 244.734L37.6552 244.63" stroke="#21214B" stroke-opacity="0.07" stroke-miterlimit="10" stroke-linecap="round" stroke-linejoin="round"/>
<path d="M37.6543 244.63L48.7815 238.326L48.9582 238.222C55.4287 234.49 65.1787 235.369 76.0876 241.663C89.0754 249.162 100.426 262.457 106.543 276.032C105.561 277.076 104.449 277.96 103.212 278.672L103.03 278.771L91.939 285.054C93.0928 284.368 94.1323 283.526 95.0574 282.544C94.6572 281.655 94.2362 280.771 93.7944 279.888C87.4487 267.254 76.7424 255.186 64.5966 248.175C58.7082 244.776 53.1575 242.951 48.2826 242.582C44.2028 242.276 40.5959 242.983 37.6543 244.63Z" stroke="#21214B" stroke-opacity="0.07" stroke-miterlimit="10" stroke-linecap="round" stroke-linejoin="round"/>
<path d="M73.674 270.195C73.674 264.406 69.615 257.369 64.5997 254.474C59.5896 251.579 55.5254 253.928 55.5254 259.713C55.5254 265.502 59.5896 272.539 64.5997 275.434C69.615 278.329 73.674 275.98 73.674 270.195Z" stroke="#21214B" stroke-opacity="0.07" stroke-miterlimit="10" stroke-linecap="round" stroke-linejoin="round"/>
<path d="M68.355 267.124C68.355 264.728 66.6763 261.812 64.5974 260.612C62.5237 259.417 60.8398 260.388 60.8398 262.784C60.8398 265.18 62.5237 268.096 64.5974 269.296C66.6763 270.492 68.355 269.52 68.355 267.124Z" stroke="#21214B" stroke-opacity="0.07" stroke-miterlimit="10" stroke-linecap="round" stroke-linejoin="round"/>
<path d="M201.045 138.238L183.312 128L183.307 127.995L183.312 127.989L201.045 117.751L218.778 127.995H218.783" stroke="#21214B" stroke-opacity="0.07" stroke-miterlimit="10" stroke-linecap="round" stroke-linejoin="round"/>
<path d="M201.051 138.239L218.778 127.995L218.784 127.99V127.995V201.624" stroke="#21214B" stroke-opacity="0.07" stroke-miterlimit="10" stroke-linecap="round" stroke-linejoin="round"/>
<path d="M183.312 170.44V128V127.99L201.045 138.239H201.051V180.679" stroke="#21214B" stroke-opacity="0.07" stroke-miterlimit="10" stroke-linecap="round" stroke-linejoin="round"/>
<path d="M201.052 241.514L201.045 241.507" stroke="#21214B" stroke-opacity="0.07" stroke-miterlimit="10" stroke-linecap="round" stroke-linejoin="round"/>
<path d="M201.051 211.862L218.784 201.624V201.629L236.522 211.867" stroke="#21214B" stroke-opacity="0.07" stroke-miterlimit="10" stroke-linecap="round" stroke-linejoin="round"/>
<path d="M236.521 211.867V221.03V241.507L218.783 251.751" stroke="#21214B" stroke-opacity="0.07" stroke-miterlimit="10" stroke-linecap="round" stroke-linejoin="round"/>
<path d="M218.783 222.116V222.111L236.521 211.867" stroke="#21214B" stroke-opacity="0.07" stroke-miterlimit="10" stroke-linecap="round" stroke-linejoin="round"/>
<path d="M201.051 211.873L218.784 222.116V251.751L201.051 241.512V241.507" stroke="#21214B" stroke-opacity="0.07" stroke-miterlimit="10" stroke-linecap="round" stroke-linejoin="round"/>
<path d="M201.045 211.867L201.052 211.874" stroke="#21214B" stroke-opacity="0.07" stroke-miterlimit="10" stroke-linecap="round" stroke-linejoin="round"/>
<path d="M165.574 180.678L183.312 170.44L201.05 180.678" stroke="#21214B" stroke-opacity="0.07" stroke-miterlimit="10" stroke-linecap="round" stroke-linejoin="round"/>
<path d="M183.312 190.922L201.051 180.679V211.862" stroke="#21214B" stroke-opacity="0.07" stroke-miterlimit="10" stroke-linecap="round" stroke-linejoin="round"/>
<path d="M201.045 241.507L183.312 251.745" stroke="#21214B" stroke-opacity="0.07" stroke-miterlimit="10" stroke-linecap="round" stroke-linejoin="round"/>
<path d="M201.05 211.862V211.872V241.507H201.045V211.867L201.05 211.862Z" stroke="#21214B" stroke-opacity="0.07" stroke-miterlimit="10" stroke-linecap="round" stroke-linejoin="round"/>
<path d="M183.312 190.922V251.745L165.574 241.507V220.796V180.679L183.312 190.922Z" stroke="#21214B" stroke-opacity="0.07" stroke-miterlimit="10" stroke-linecap="round" stroke-linejoin="round"/>
<path d="M636.783 349.687L644.641 345.15L654.521 339.448L662.821 344.24L672.254 349.687" stroke="#21214B" stroke-opacity="0.07" stroke-miterlimit="10" stroke-linecap="round" stroke-linejoin="round"/>
<path d="M654.521 359.93L672.254 349.687" stroke="#21214B" stroke-opacity="0.07" stroke-miterlimit="10" stroke-linecap="round" stroke-linejoin="round"/>
<path d="M672.254 349.687V380.87V380.875V400.12L654.521 410.359" stroke="#21214B" stroke-opacity="0.07" stroke-miterlimit="10" stroke-linecap="round" stroke-linejoin="round"/>
<path d="M654.521 359.93V410.359L636.783 400.12V349.687L654.521 359.93Z" stroke="#21214B" stroke-opacity="0.07" stroke-miterlimit="10" stroke-linecap="round" stroke-linejoin="round"/>
<path d="M576.924 318.82L571.622 321.907L566.966 324.62L543.1 338.518C536.614 342.296 536.588 351.667 543.059 355.476L578.368 376.281C584.912 380.132 584.797 389.632 578.171 393.333L567.127 399.491" stroke="#21214B" stroke-opacity="0.07" stroke-miterlimit="10" stroke-linecap="round" stroke-linejoin="round"/>
<path d="M236.518 221.024L236.523 221.03L259.811 234.324" stroke="#21214B" stroke-opacity="0.07" stroke-miterlimit="10" stroke-linecap="round" stroke-linejoin="round"/>
<path d="M252.887 252.769L201.044 282.7L185.552 273.755L129.697 241.507L165.574 220.796" stroke="#21214B" stroke-opacity="0.07" stroke-miterlimit="10" stroke-linecap="round" stroke-linejoin="round"/>
<path d="M52.207 149.527L62.4299 167.234L71.7485 161.855L79.8665 175.913L90.0894 170.014L100.312 187.721L110.837 181.646L119.558 196.743" stroke="#21214B" stroke-opacity="0.07" stroke-miterlimit="10" stroke-linecap="round" stroke-linejoin="round"/>
<path d="M57.7578 520.534L100.562 495.816L143.366 520.534L100.562 545.247L57.7578 520.534Z" stroke="#21214B" stroke-opacity="0.07" stroke-miterlimit="10" stroke-linecap="round" stroke-linejoin="round"/>
<path d="M57.7578 546.104L73.5833 555.241L100.562 570.817L127.541 555.241L143.366 546.104V520.534" stroke="#21214B" stroke-opacity="0.07" stroke-miterlimit="10" stroke-linecap="round" stroke-linejoin="round"/>
<path d="M57.7578 546.104V520.534" stroke="#21214B" stroke-opacity="0.07" stroke-miterlimit="10" stroke-linecap="round" stroke-linejoin="round"/>
<path d="M100.562 545.247V570.817" stroke="#21214B" stroke-opacity="0.07" stroke-miterlimit="10" stroke-linecap="round" stroke-linejoin="round"/>
<path d="M119.589 547.43C119.589 549.207 118.342 551.364 116.803 552.253C115.265 553.141 114.018 552.419 114.018 550.647C114.018 548.869 115.265 546.712 116.803 545.824C118.342 544.935 119.589 545.657 119.589 547.43Z" stroke="#21214B" stroke-opacity="0.07" stroke-miterlimit="10" stroke-linecap="round" stroke-linejoin="round"/>
<path d="M131.236 540.705C131.236 542.482 129.989 544.639 128.45 545.528C126.917 546.416 125.67 545.694 125.67 543.922C125.67 542.144 126.917 539.987 128.45 539.099C129.989 538.21 131.236 538.927 131.236 540.705Z" stroke="#21214B" stroke-opacity="0.07" stroke-miterlimit="10" stroke-linecap="round" stroke-linejoin="round"/>
<path d="M127.541 555.241L143.366 564.378L100.562 589.091L57.7578 564.378C57.7578 564.378 65.0339 560.179 73.5833 555.241" stroke="#21214B" stroke-opacity="0.07" stroke-miterlimit="10" stroke-linecap="round" stroke-linejoin="round"/>
<path d="M57.7578 589.953L73.5833 599.09L100.562 614.666L127.541 599.09L143.366 589.953V564.378" stroke="#21214B" stroke-opacity="0.07" stroke-miterlimit="10" stroke-linecap="round" stroke-linejoin="round"/>
<path d="M57.7578 589.953V564.378" stroke="#21214B" stroke-opacity="0.07" stroke-miterlimit="10" stroke-linecap="round" stroke-linejoin="round"/>
<path d="M100.562 589.09V614.666" stroke="#21214B" stroke-opacity="0.07" stroke-miterlimit="10" stroke-linecap="round" stroke-linejoin="round"/>
<path d="M119.589 591.278C119.589 593.051 118.342 595.213 116.803 596.101C115.265 596.985 114.018 596.268 114.018 594.49C114.018 592.718 115.265 590.556 116.803 589.672C118.342 588.784 119.589 589.501 119.589 591.278Z" stroke="#21214B" stroke-opacity="0.07" stroke-miterlimit="10" stroke-linecap="round" stroke-linejoin="round"/>
<path d="M131.236 584.553C131.236 586.325 129.989 588.487 128.45 589.376C126.917 590.26 125.67 589.542 125.67 587.765C125.67 585.993 126.917 583.831 128.45 582.942C129.989 582.058 131.236 582.776 131.236 584.553Z" stroke="#21214B" stroke-opacity="0.07" stroke-miterlimit="10" stroke-linecap="round" stroke-linejoin="round"/>
<path d="M127.541 599.09L143.366 608.226L100.562 632.939L57.7578 608.226C57.7578 608.226 65.0339 604.027 73.5833 599.09" stroke="#21214B" stroke-opacity="0.07" stroke-miterlimit="10" stroke-linecap="round" stroke-linejoin="round"/>
<path d="M57.7578 633.802V608.227" stroke="#21214B" stroke-opacity="0.07" stroke-miterlimit="10" stroke-linecap="round" stroke-linejoin="round"/>
<path d="M144.244 426.542C144.234 426.558 144.224 426.579 144.213 426.594C142.29 429.734 140.929 432.935 140.113 436.147C139.484 438.621 139.172 441.1 139.172 443.569C139.172 462.2 156.785 480.172 187.454 489.273C216.896 498.004 250.844 496.336 276.721 486.601" stroke="#21214B" stroke-opacity="0.07" stroke-miterlimit="10" stroke-linecap="round" stroke-linejoin="round"/>
<path d="M202.34 394.481C202.413 394.465 202.491 394.45 202.563 394.439C223.809 390.765 247.452 391.649 268.739 397.963C299.408 407.063 317.021 425.03 317.021 443.657C317.021 446.713 316.548 449.784 315.582 452.84" stroke="#21214B" stroke-opacity="0.07" stroke-miterlimit="10" stroke-linecap="round" stroke-linejoin="round"/>
<path d="M139.172 443.569C139.172 451.307 139.172 461.057 139.172 465.449C139.172 484.071 156.785 502.043 187.454 511.143C219.282 520.586 256.374 517.873 282.843 505.951" stroke="#21214B" stroke-opacity="0.07" stroke-miterlimit="10" stroke-linecap="round" stroke-linejoin="round"/>
<path d="M296.762 498.113C297.001 497.942 297.24 497.776 297.474 497.604" stroke="#21214B" stroke-opacity="0.07" stroke-miterlimit="10" stroke-linecap="round" stroke-linejoin="round"/>
<path d="M306.445 489.751C306.69 489.486 306.934 489.221 307.173 488.951C314.636 480.573 316.538 473.016 316.954 467.543" stroke="#21214B" stroke-opacity="0.07" stroke-miterlimit="10" stroke-linecap="round" stroke-linejoin="round"/>
<path d="M202.338 394.481L228.091 443.616L212.343 440.409L192.817 436.433L144.244 426.543" stroke="#21214B" stroke-opacity="0.07" stroke-miterlimit="10" stroke-linecap="round" stroke-linejoin="round"/>
<path d="M289.047 425.446C289.063 425.67 289.073 425.898 289.073 426.127C289.073 427.494 288.772 428.648 288.299 429.609C286.921 432.395 284.089 433.595 282.842 433.943C282.545 434.032 282.337 434.068 282.26 434.068C278.227 434.068 275.264 430.986 274.287 427.208C274.084 426.408 273.97 425.576 273.954 424.744C273.949 424.661 273.949 424.583 273.949 424.5C273.949 423.107 274.204 421.818 274.703 420.696" stroke="#21214B" stroke-opacity="0.07" stroke-miterlimit="10" stroke-linecap="round" stroke-linejoin="round"/>
<path d="M307.448 517.956C310.041 523.918 311.72 525.498 320.987 525.498C325.467 525.498 325.42 525.378 325.42 524.718C325.42 524.391 325.326 524.022 325.326 523.834C325.326 522.161 318.7 521.641 316.678 517.79C316.247 516.969 315.846 516.137 315.462 515.295C311.632 506.876 309.937 497.443 306.445 489.751C304.018 484.403 300.728 479.902 295.25 477.164" stroke="#21214B" stroke-opacity="0.07" stroke-miterlimit="10" stroke-linecap="round" stroke-linejoin="round"/>
<path d="M273.468 427.411C271.503 429.703 269.461 431.319 267.486 432.946C261.592 437.81 256.348 442.768 255.813 466.177C255.787 467.247 255.777 468.359 255.771 469.508C255.771 469.747 255.771 469.981 255.771 470.225C255.771 480.308 262.897 484.008 270.916 485.687C272.829 486.087 274.793 486.373 276.721 486.602C277.948 486.747 279.159 486.867 280.339 486.986C281.472 487.1 282.573 487.204 283.618 487.319C287.999 487.787 291.476 488.374 292.63 490.073C294.267 492.474 295.712 494.72 296.996 496.814C297.157 497.079 297.318 497.344 297.474 497.604C303.295 507.271 305.607 513.715 307.442 517.956" stroke="#21214B" stroke-opacity="0.07" stroke-miterlimit="10" stroke-linecap="round" stroke-linejoin="round"/>
<path d="M306.581 472.445C310.141 470.943 313.566 469.279 316.955 467.544C318.015 467.003 319.065 466.457 320.12 465.906C322.043 459.114 324.038 454.868 325.572 448.007C322.287 449.572 318.841 451.25 315.583 452.841C311.856 454.665 308.384 456.364 305.703 457.638C305.588 459.862 305.36 462.087 305.032 464.301C304.564 467.512 303.889 470.704 303.047 473.863C304.242 473.406 305.417 472.938 306.581 472.445Z" stroke="#21214B" stroke-opacity="0.07" stroke-miterlimit="10" stroke-linecap="round" stroke-linejoin="round"/>
<path d="M302.79 474.773C302.65 474.679 302.515 474.596 302.375 474.507C302.115 474.346 301.85 474.196 301.585 474.055C297.593 471.94 292.947 471.815 287.833 469.419C287.459 469.243 287.085 469.061 286.705 468.858C283.057 466.914 279.174 463.687 275.136 457.674C272.87 454.311 270.557 450.075 268.203 444.696" stroke="#21214B" stroke-opacity="0.07" stroke-miterlimit="10" stroke-linecap="round" stroke-linejoin="round"/>
<path d="M306.923 473.271C305.182 475.885 302.069 477.439 298.847 477.439C298.535 477.439 297.215 477.189 295.334 476.8C295.328 476.8 295.328 476.8 295.323 476.8C289.31 475.552 277.585 472.808 274.597 471.763C272.632 471.077 271.016 469.976 269.675 468.604C269.571 468.494 269.467 468.385 269.363 468.276C267.825 466.597 266.655 464.55 265.741 462.336C264.4 459.082 263.599 455.481 262.939 452.217" stroke="#21214B" stroke-opacity="0.07" stroke-miterlimit="10" stroke-linecap="round" stroke-linejoin="round"/>
<path d="M288.883 429.661C295.722 431.241 298.29 441.287 299.438 452.071C299.776 455.252 299.994 458.5 300.156 461.614" stroke="#21214B" stroke-opacity="0.07" stroke-miterlimit="10" stroke-linecap="round" stroke-linejoin="round"/>
<path d="M304.666 464.248C303.674 463.583 302.12 462.684 300.982 462.684C300.81 462.684 300.607 462.71 300.379 462.752C298.783 463.074 295.935 464.441 293.29 465.776C293.03 465.906 292.775 466.036 292.521 466.171C290.743 467.081 289.122 467.933 288.129 468.38" stroke="#21214B" stroke-opacity="0.07" stroke-miterlimit="10" stroke-linecap="round" stroke-linejoin="round"/>
<path d="M291.135 448.08C291.493 449.852 291.732 451.656 291.894 453.49C292.263 457.497 292.263 461.624 292.263 465.751" stroke="#21214B" stroke-opacity="0.07" stroke-miterlimit="10" stroke-linecap="round" stroke-linejoin="round"/>
<path d="M275.132 457.679C272.248 459.623 269.046 461.12 265.746 462.336" stroke="#21214B" stroke-opacity="0.07" stroke-miterlimit="10" stroke-linecap="round" stroke-linejoin="round"/>
<path d="M299.438 452.071C296.928 452.664 294.413 453.209 291.902 453.49" stroke="#21214B" stroke-opacity="0.07" stroke-miterlimit="10" stroke-linecap="round" stroke-linejoin="round"/>
<path d="M274.251 424.775C274.251 424.77 274.256 424.76 274.256 424.755M274.256 424.755C274.542 423.601 274.609 422.166 274.703 420.696C274.957 416.834 275.389 412.708 280.347 412.708C288.73 412.708 292.69 420.82 292.69 423.066C292.69 424.271 290.965 425.02 289.047 425.446C287.53 425.784 285.892 425.919 284.9 425.919C280.337 425.919 276.896 424.843 274.256 424.755ZM274.256 424.755C274.152 424.744 274.053 424.744 273.954 424.744H273.949" stroke="#21214B" stroke-opacity="0.07" stroke-miterlimit="10" stroke-linecap="round" stroke-linejoin="round"/>
<path d="M315.463 515.295C312.947 516.48 310.203 517.338 307.449 517.956H307.443" stroke="#21214B" stroke-opacity="0.07" stroke-miterlimit="10" stroke-linecap="round" stroke-linejoin="round"/>
<path d="M292.635 535.669C287.032 535.669 284.501 531.506 283.373 526.173C282.646 522.748 282.5 518.845 282.5 515.249C282.5 512.162 282.651 509.059 282.843 505.951C283.181 500.494 283.649 495.026 283.649 489.585C283.649 488.831 283.638 488.073 283.617 487.319C283.617 487.272 283.617 487.22 283.617 487.179" stroke="#21214B" stroke-opacity="0.07" stroke-miterlimit="10" stroke-linecap="round" stroke-linejoin="round"/>
<path d="M296.772 496.949C296.772 497.339 296.767 497.729 296.761 498.113C296.543 510.675 292.832 519.734 292.832 525.123C292.832 525.529 292.848 526.038 292.879 526.62C293.045 529.754 293.534 534.842 293.149 534.842C292.822 534.842 293.279 535.668 292.635 535.668" stroke="#21214B" stroke-opacity="0.07" stroke-miterlimit="10" stroke-linecap="round" stroke-linejoin="round"/>
<path d="M292.879 526.62C292.598 526.641 292.312 526.646 292.026 526.646C289.823 526.646 287.562 526.272 285.494 526.272C284.787 526.272 284.08 526.24 283.373 526.173" stroke="#21214B" stroke-opacity="0.07" stroke-miterlimit="10" stroke-linecap="round" stroke-linejoin="round"/>
<path d="M282.863 433.793C282.858 433.84 282.853 433.892 282.842 433.944C282.452 436.537 281.345 440.185 279.178 440.185C279.157 440.185 279.131 440.185 279.105 440.185C274.277 440.004 270.535 436.802 267.484 432.946" stroke="#21214B" stroke-opacity="0.07" stroke-miterlimit="10" stroke-linecap="round" stroke-linejoin="round"/>
<path d="M268.956 468.754C266.534 469.638 263.982 470.007 261.379 470.007C259.539 470.007 257.673 469.82 255.797 469.508" stroke="#21214B" stroke-opacity="0.07" stroke-miterlimit="10" stroke-linecap="round" stroke-linejoin="round"/>
<path d="M202.34 394.481V419.314L212.344 440.409" stroke="#21214B" stroke-opacity="0.07" stroke-miterlimit="10" stroke-linecap="round" stroke-linejoin="round"/>
<path d="M108.971 407.698C110.291 405.536 111.881 403.41 113.747 401.31C125.217 388.421 144.811 379.524 167.065 375.636L192.817 424.771" stroke="#21214B" stroke-opacity="0.07" stroke-miterlimit="10" stroke-linecap="round" stroke-linejoin="round"/>
<path d="M140.112 436.147L108.971 429.807V407.698L128.19 411.611L179.845 422.13L192.817 424.771V436.433" stroke="#21214B" stroke-opacity="0.07" stroke-miterlimit="10" stroke-linecap="round" stroke-linejoin="round"/>
<path d="M361.545 526.802L369.949 521.948L382.287 514.828L394.62 507.708L406.953 500.582L425.751 489.73L444.549 500.582L456.882 507.708L469.215 514.828L481.548 521.948L489.957 526.802L425.751 563.869L361.545 526.802Z" stroke="#21214B" stroke-opacity="0.07" stroke-miterlimit="10" stroke-linecap="round" stroke-linejoin="round"/>
<path d="M402.49 526.802L425.753 513.373L449.01 526.802L425.753 540.232L402.49 526.802Z" stroke="#21214B" stroke-opacity="0.07" stroke-miterlimit="10" stroke-linecap="round" stroke-linejoin="round"/>
<path d="M489.957 539.836L481.548 544.691L469.215 551.811L456.882 558.936L444.549 566.056L425.751 576.908L406.953 566.056L394.62 558.936L382.282 551.811L369.949 544.691L361.545 539.836" stroke="#21214B" stroke-opacity="0.07" stroke-miterlimit="10" stroke-linecap="round" stroke-linejoin="round"/>
<path d="M489.957 539.836V526.802" stroke="#21214B" stroke-opacity="0.07" stroke-miterlimit="10" stroke-linecap="round" stroke-linejoin="round"/>
<path d="M361.545 539.836V526.802" stroke="#21214B" stroke-opacity="0.07" stroke-miterlimit="10" stroke-linecap="round" stroke-linejoin="round"/>
<path d="M439.564 563.177L444.549 566.057L460.967 575.531" stroke="#21214B" stroke-opacity="0.07" stroke-miterlimit="10" stroke-linecap="round" stroke-linejoin="round"/>
<path d="M451.898 556.057L456.883 558.936L473.301 568.411" stroke="#21214B" stroke-opacity="0.07" stroke-miterlimit="10" stroke-linecap="round" stroke-linejoin="round"/>
<path d="M464.23 548.932L469.215 551.811L485.633 561.291" stroke="#21214B" stroke-opacity="0.07" stroke-miterlimit="10" stroke-linecap="round" stroke-linejoin="round"/>
<path d="M476.564 541.812L481.549 544.691L497.967 554.17" stroke="#21214B" stroke-opacity="0.07" stroke-miterlimit="10" stroke-linecap="round" stroke-linejoin="round"/>
<path d="M444.551 500.582L460.969 491.103" stroke="#21214B" stroke-opacity="0.07" stroke-miterlimit="10" stroke-linecap="round" stroke-linejoin="round"/>
<path d="M456.883 507.707L473.301 498.228" stroke="#21214B" stroke-opacity="0.07" stroke-miterlimit="10" stroke-linecap="round" stroke-linejoin="round"/>
<path d="M469.217 514.827L485.635 505.348" stroke="#21214B" stroke-opacity="0.07" stroke-miterlimit="10" stroke-linecap="round" stroke-linejoin="round"/>
<path d="M481.549 521.947L497.967 512.468" stroke="#21214B" stroke-opacity="0.07" stroke-miterlimit="10" stroke-linecap="round" stroke-linejoin="round"/>
<path d="M411.937 563.177L406.953 566.057L390.535 575.531" stroke="#21214B" stroke-opacity="0.07" stroke-miterlimit="10" stroke-linecap="round" stroke-linejoin="round"/>
<path d="M399.605 556.057L394.621 558.936L378.203 568.411" stroke="#21214B" stroke-opacity="0.07" stroke-miterlimit="10" stroke-linecap="round" stroke-linejoin="round"/>
<path d="M387.267 548.932L382.283 551.811L365.865 561.291" stroke="#21214B" stroke-opacity="0.07" stroke-miterlimit="10" stroke-linecap="round" stroke-linejoin="round"/>
<path d="M374.933 541.812L369.949 544.691L353.531 554.17" stroke="#21214B" stroke-opacity="0.07" stroke-miterlimit="10" stroke-linecap="round" stroke-linejoin="round"/>
<path d="M406.953 500.582L390.535 491.103" stroke="#21214B" stroke-opacity="0.07" stroke-miterlimit="10" stroke-linecap="round" stroke-linejoin="round"/>
<path d="M394.621 507.707L378.203 498.228" stroke="#21214B" stroke-opacity="0.07" stroke-miterlimit="10" stroke-linecap="round" stroke-linejoin="round"/>
<path d="M382.288 514.827L365.865 505.348" stroke="#21214B" stroke-opacity="0.07" stroke-miterlimit="10" stroke-linecap="round" stroke-linejoin="round"/>
<path d="M369.949 521.947L353.531 512.468" stroke="#21214B" stroke-opacity="0.07" stroke-miterlimit="10" stroke-linecap="round" stroke-linejoin="round"/>
<path d="M425.75 563.868V576.908" stroke="#21214B" stroke-opacity="0.07" stroke-miterlimit="10" stroke-linecap="round" stroke-linejoin="round"/>
<path d="M382.441 433.647C382.441 431.355 384.053 430.425 386.038 431.569C388.028 432.717 389.64 435.508 389.64 437.805C389.64 440.097 388.028 441.027 386.038 439.879C384.053 438.735 382.441 435.945 382.441 433.647Z" stroke="#21214B" stroke-opacity="0.07" stroke-miterlimit="10" stroke-linecap="round" stroke-linejoin="round"/>
<path d="M376.373 423.492C378.338 420.831 381.929 420.358 386.04 422.733C390.151 425.103 393.747 429.723 395.707 434.655" stroke="#21214B" stroke-opacity="0.07" stroke-miterlimit="10" stroke-linecap="round" stroke-linejoin="round"/>
<path d="M371.498 414.834C374.434 410.79 379.85 410.063 386.04 413.638C392.23 417.214 397.645 424.189 400.582 431.621" stroke="#21214B" stroke-opacity="0.07" stroke-miterlimit="10" stroke-linecap="round" stroke-linejoin="round"/>
<path d="M366.623 406.17C370.537 400.749 377.766 399.767 386.04 404.543C394.179 409.241 401.309 418.347 405.264 428.102" stroke="#21214B" stroke-opacity="0.07" stroke-miterlimit="10" stroke-linecap="round" stroke-linejoin="round"/>
<path d="M703.115 14.3634C706.052 10.32 711.467 9.59235 717.657 13.168C723.847 16.7437 729.262 23.7183 732.199 31.1555" stroke="#21214B" stroke-opacity="0.07" stroke-miterlimit="10" stroke-linecap="round" stroke-linejoin="round"/>
<path d="M698.24 5.69944C702.154 0.278763 709.383 -0.703508 717.657 4.07272C725.796 8.77099 732.926 17.8765 736.876 27.6368" stroke="#21214B" stroke-opacity="0.07" stroke-miterlimit="10" stroke-linecap="round" stroke-linejoin="round"/>
<path d="M268.896 57.9521L246.221 71.0387L245.826 70.8152L223.551 57.9521" stroke="#21214B" stroke-opacity="0.07" stroke-miterlimit="10" stroke-linecap="round" stroke-linejoin="round"/>
<path d="M246.813 12.5234C246.543 28.7595 246.273 54.2674 246.008 70.4982" stroke="#21214B" stroke-opacity="0.07" stroke-miterlimit="10" stroke-linecap="round" stroke-linejoin="round"/>
<path d="M246.812 12.5234L268.895 57.9522" stroke="#21214B" stroke-opacity="0.07" stroke-miterlimit="10" stroke-linecap="round" stroke-linejoin="round"/>
<path d="M223.551 57.9522L246.813 12.5234" stroke="#21214B" stroke-opacity="0.07" stroke-miterlimit="10" stroke-linecap="round" stroke-linejoin="round"/>
<path d="M536.322 626.801L513.647 639.893L513.252 639.664L490.977 626.801" stroke="#21214B" stroke-opacity="0.07" stroke-miterlimit="10" stroke-linecap="round" stroke-linejoin="round"/>
<path d="M514.234 581.378C513.969 597.609 513.699 623.122 513.434 639.348" stroke="#21214B" stroke-opacity="0.07" stroke-miterlimit="10" stroke-linecap="round" stroke-linejoin="round"/>
<path d="M514.234 581.378L536.323 626.801" stroke="#21214B" stroke-opacity="0.07" stroke-miterlimit="10" stroke-linecap="round" stroke-linejoin="round"/>
<path d="M490.977 626.801L514.234 581.378" stroke="#21214B" stroke-opacity="0.07" stroke-miterlimit="10" stroke-linecap="round" stroke-linejoin="round"/>
<path d="M193.973 330.384L162.172 311.97L154.09 307.293C147.573 303.52 147.729 294.066 154.36 290.506L185.554 273.755" stroke="#21214B" stroke-opacity="0.07" stroke-miterlimit="10" stroke-linecap="round" stroke-linejoin="round"/>
<path d="M126.45 333.237C129.028 334.724 129.028 337.146 126.45 338.632C123.867 340.124 119.678 340.124 117.095 338.632C114.512 337.146 114.512 334.724 117.095 333.237C119.678 331.746 123.867 331.746 126.45 333.237Z" stroke="#21214B" stroke-opacity="0.07" stroke-miterlimit="10" stroke-linecap="round" stroke-linejoin="round"/>
<path d="M126.451 333.238L162.172 311.971" stroke="#21214B" stroke-opacity="0.07" stroke-miterlimit="10" stroke-linecap="round" stroke-linejoin="round"/>
<path d="M569.998 506.325C572.581 504.833 572.581 502.416 569.998 500.925C567.415 499.433 563.231 499.433 560.648 500.925C558.065 502.416 558.065 504.833 560.648 506.325C563.231 507.811 567.415 507.811 569.998 506.325Z" stroke="#21214B" stroke-opacity="0.07" stroke-miterlimit="10" stroke-linecap="round" stroke-linejoin="round"/>
<path d="M570.002 506.325L597.568 522.728" stroke="#21214B" stroke-opacity="0.07" stroke-miterlimit="10" stroke-linecap="round" stroke-linejoin="round"/>
<path d="M1 314.262L60.2637 348.475" stroke="#21214B" stroke-opacity="0.07" stroke-miterlimit="10" stroke-linecap="round" stroke-linejoin="round"/>
<path d="M62.8595 342.296V349.972H49.5547" stroke="#21214B" stroke-opacity="0.07" stroke-miterlimit="10" stroke-linecap="round" stroke-linejoin="round"/>
<path d="M467.938 261.256L522.331 229.85C525.335 228.114 529.046 228.135 532.035 229.902L545.246 237.713" stroke="#21214B" stroke-opacity="0.07" stroke-miterlimit="10" stroke-linecap="round" stroke-linejoin="round"/>
<path d="M478.638 262.758H465.338V255.077" stroke="#21214B" stroke-opacity="0.07" stroke-miterlimit="10" stroke-linecap="round" stroke-linejoin="round"/>
<path d="M609.156 632.477L679.079 592.11" stroke="#21214B" stroke-opacity="0.07" stroke-miterlimit="10" stroke-linecap="round" stroke-linejoin="round"/>
<path d="M666.451 590.338H682.147V599.402" stroke="#21214B" stroke-opacity="0.07" stroke-miterlimit="10" stroke-linecap="round" stroke-linejoin="round"/>
<path d="M55.1859 441.344C60.1284 441.344 64.1303 437.337 64.1303 432.395C64.1303 430.669 63.6418 429.053 62.7946 427.686C61.2147 425.144 58.3978 423.45 55.1859 423.45C50.2434 423.45 46.2363 427.452 46.2363 432.395C46.2363 437.337 50.2434 441.344 55.1859 441.344Z" stroke="#21214B" stroke-opacity="0.07" stroke-miterlimit="10" stroke-linecap="round" stroke-linejoin="round"/>
<path d="M86.2462 417.074C86.2462 414.236 83.9438 411.934 81.1062 411.934C78.2633 411.934 75.9609 414.236 75.9609 417.074C75.9609 418.025 76.2208 418.913 76.6678 419.677C77.5617 421.2 79.2144 422.219 81.1062 422.219C83.9438 422.219 86.2462 419.917 86.2462 417.074Z" stroke="#21214B" stroke-opacity="0.07" stroke-miterlimit="10" stroke-linecap="round" stroke-linejoin="round"/>
<path d="M41.0743 420.691C41.0743 417.853 38.772 415.551 35.9343 415.551C33.0914 415.551 30.7891 417.853 30.7891 420.691C30.7891 423.534 33.0914 425.836 35.9343 425.836C37.7533 425.836 39.3488 424.89 40.2636 423.466C40.7781 422.666 41.0743 421.709 41.0743 420.691Z" stroke="#21214B" stroke-opacity="0.07" stroke-miterlimit="10" stroke-linecap="round" stroke-linejoin="round"/>
<path d="M60.3243 463.302C60.3243 460.46 58.022 458.157 55.1843 458.157C52.3414 458.157 50.0391 460.46 50.0391 463.302C50.0391 466.14 52.3414 468.442 55.1843 468.442C58.022 468.442 60.3243 466.14 60.3243 463.302Z" stroke="#21214B" stroke-opacity="0.07" stroke-miterlimit="10" stroke-linecap="round" stroke-linejoin="round"/>
<path d="M79.1661 418.232L76.6663 419.677L62.7949 427.686" stroke="#21214B" stroke-opacity="0.07" stroke-miterlimit="10" stroke-linecap="round" stroke-linejoin="round"/>
<path d="M55.1855 441.344V458.157V460.782" stroke="#21214B" stroke-opacity="0.07" stroke-miterlimit="10" stroke-linecap="round" stroke-linejoin="round"/>
<path d="M37.7539 422.016L40.2642 423.466L47.2752 427.515" stroke="#21214B" stroke-opacity="0.07" stroke-miterlimit="10" stroke-linecap="round" stroke-linejoin="round"/>
<path d="M119.826 60.8052L139.196 99.2489L122.596 108.833" stroke="#21214B" stroke-opacity="0.07" stroke-miterlimit="10" stroke-linecap="round" stroke-linejoin="round"/>
<path d="M105.516 68.0713V98.9738" stroke="#21214B" stroke-opacity="0.07" stroke-miterlimit="10" stroke-linecap="round" stroke-linejoin="round"/>
<path d="M88.4384 108.833L71.8438 99.2489L91.1358 60.9663" stroke="#21214B" stroke-opacity="0.07" stroke-miterlimit="10" stroke-linecap="round" stroke-linejoin="round"/>
<path d="M107.824 67.2758L107.783 67.2966C107.092 67.6708 106.333 67.9306 105.517 68.0657C103.173 68.4711 100.382 67.8787 97.3833 66.148C95.1537 64.8591 93.0333 63.0712 91.1415 60.9612C85.9911 55.2599 82.4258 47.199 82.4258 40.2347C82.4258 35.3598 84.172 31.9712 86.9837 30.4536" stroke="#21214B" stroke-opacity="0.07" stroke-miterlimit="10" stroke-linecap="round" stroke-linejoin="round"/>
<path d="M102.311 51.7205C102.311 53.316 101.739 54.4334 100.825 54.9375L100.809 54.9427C99.9254 55.4209 98.7145 55.3325 97.384 54.5634C94.6606 52.9938 92.457 49.1739 92.457 46.0295C92.457 44.4236 93.0339 43.3062 93.959 42.8073C94.8425 42.3291 96.0535 42.4175 97.384 43.1867C97.8777 43.4725 98.3559 43.8311 98.808 44.2469C100.44 45.7541 101.713 48.0097 102.15 50.1665C102.259 50.6966 102.311 51.2164 102.311 51.7205Z" stroke="#21214B" stroke-opacity="0.07" stroke-miterlimit="10" stroke-linecap="round" stroke-linejoin="round"/>
<path d="M125.291 57.8582L119.824 60.805L107.823 67.2755C110.609 65.7476 112.345 62.359 112.345 57.51C112.345 55.982 112.173 54.3969 111.846 52.7961C110.521 46.2373 106.654 39.403 101.701 34.8242C100.334 33.5613 98.884 32.4647 97.382 31.602C93.3386 29.2684 89.6694 29.0034 86.9824 30.4534L105.682 20.3656L105.765 20.324C108.457 18.874 112.121 19.1391 116.16 21.4726C119.257 23.2657 122.136 26.015 124.527 29.2528" stroke="#21214B" stroke-opacity="0.07" stroke-miterlimit="10" stroke-linecap="round" stroke-linejoin="round"/>
<path d="M155.268 40.3806L120.171 34.383L106.861 32.1119L114.694 27.5747L124.527 29.2534L155.367 34.5234" stroke="#21214B" stroke-opacity="0.07" stroke-miterlimit="10" stroke-linecap="round" stroke-linejoin="round"/>
<path d="M162.846 59.7713L125.291 57.8587L117.043 57.4378C117.193 56.5542 117.271 55.598 117.271 54.5793C117.271 53.0513 117.1 51.4662 116.772 49.8655C115.468 43.4105 111.7 36.6905 106.861 32.1118" stroke="#21214B" stroke-opacity="0.07" stroke-miterlimit="10" stroke-linecap="round" stroke-linejoin="round"/>
<path d="M88.4371 108.833C86.7584 111.733 85.7969 115.101 85.7969 118.692C85.7969 129.585 94.6217 138.41 105.515 138.41C116.403 138.41 125.233 129.585 125.233 118.692C125.233 115.101 124.272 111.733 122.593 108.833C119.184 102.939 112.812 98.9736 105.515 98.9736C98.213 98.9736 91.8464 102.939 88.4371 108.833Z" stroke="#21214B" stroke-opacity="0.07" stroke-miterlimit="10" stroke-linecap="round" stroke-linejoin="round"/>
<path d="M175.602 37.2725C175.487 38.7745 175.685 40.5103 176.236 42.3865C178.101 48.6959 183.283 54.1945 187.82 54.6623L199.062 55.8265" stroke="#21214B" stroke-opacity="0.07" stroke-miterlimit="10" stroke-linecap="round" stroke-linejoin="round"/>
<path d="M183.952 37.9065C184.009 37.9897 184.066 38.0728 184.123 38.156L183.614 38.104L175.6 37.2725L172.882 36.9918C168.344 36.5241 166.177 41.2639 168.038 47.5733C169.898 53.8879 175.085 59.3813 179.622 59.8543L190.864 61.0133" stroke="#21214B" stroke-opacity="0.07" stroke-miterlimit="10" stroke-linecap="round" stroke-linejoin="round"/>
<path d="M186.049 69.8952C184.365 70.9554 182.291 71.4336 179.885 71.1841C174.157 70.5916 167.916 66.0285 163.118 59.5787C160.244 55.7068 157.89 51.1593 156.482 46.3779C155.863 44.2834 155.468 42.2721 155.276 40.3803C155.058 38.265 155.094 36.2953 155.375 34.523C155.978 30.6355 157.713 27.6783 160.364 26.1348" stroke="#21214B" stroke-opacity="0.07" stroke-miterlimit="10" stroke-linecap="round" stroke-linejoin="round"/>
<path d="M160.363 26.1349C168.824 20.7506 170.15 19.3682 174.458 19.8151C180.638 20.4544 187.41 25.7036 192.321 32.9692L183.953 37.9066C182.451 35.7238 180.783 33.728 179.016 31.9922C175.014 28.0475 170.498 25.4385 166.262 25.0019C165.805 24.9552 165.358 24.9344 164.926 24.9448C163.201 24.9604 161.673 25.3761 160.363 26.1349Z" stroke="#21214B" stroke-opacity="0.07" stroke-miterlimit="10" stroke-linecap="round" stroke-linejoin="round"/>
<path d="M199.059 55.8267C198.571 59.9013 196.887 63.03 194.242 64.7035L194.231 64.7087L186.066 69.8799C187.464 68.986 188.587 67.6867 189.413 66.0599C190.141 64.6203 190.635 62.9208 190.863 61.0135L199.059 55.8267Z" stroke="#21214B" stroke-opacity="0.07" stroke-miterlimit="10" stroke-linecap="round" stroke-linejoin="round"/>
<path d="M186.07 69.8794L186.049 69.8952" stroke="#21214B" stroke-opacity="0.07" stroke-miterlimit="10" stroke-linecap="round" stroke-linejoin="round"/>
<path d="M183.953 37.9062L183.615 38.1037" stroke="#21214B" stroke-opacity="0.07" stroke-miterlimit="10" stroke-linecap="round" stroke-linejoin="round"/>
<path d="M50.6228 70.4981C50.6228 66.0181 46.9952 62.3853 42.5152 62.3853C38.0352 62.3853 34.4023 66.0181 34.4023 70.4981C34.4023 74.9781 38.0352 78.6057 42.5152 78.6057C46.9952 78.6057 50.6228 74.9781 50.6228 70.4981Z" stroke="#21214B" stroke-opacity="0.07" stroke-miterlimit="10" stroke-linecap="round" stroke-linejoin="round"/>
<path d="M394.71 21.1764L401.56 17.2214C402.729 16.5509 403.805 16.473 404.647 16.8991C405.765 17.45 406.482 18.8793 406.482 20.9425V83.1946C406.482 86.8171 404.278 91.0216 401.56 92.5911L320.213 139.558C319.018 140.249 317.916 140.312 317.064 139.849C315.983 139.272 315.297 137.859 315.297 135.837V129.741" stroke="#21214B" stroke-opacity="0.07" stroke-miterlimit="10" stroke-linecap="round" stroke-linejoin="round"/>
<path d="M333.631 75.2068C329.775 81.2668 327.332 88.3558 327.332 94.6963C327.332 106.255 335.445 110.938 345.449 105.158C355.459 99.3842 363.572 85.331 363.572 73.7776C363.572 65.2854 359.191 60.504 352.897 60.8626C350.626 60.9873 348.105 61.7825 345.449 63.3157C340.933 65.9246 336.801 70.2175 333.631 75.2068Z" stroke="#21214B" stroke-opacity="0.07" stroke-miterlimit="10" stroke-linecap="round" stroke-linejoin="round"/>
<path d="M345.449 84.2398L333.631 75.207" stroke="#21214B" stroke-opacity="0.07" stroke-miterlimit="10" stroke-linecap="round" stroke-linejoin="round"/>
<path d="M345.451 84.2393L352.899 60.8623" stroke="#21214B" stroke-opacity="0.07" stroke-miterlimit="10" stroke-linecap="round" stroke-linejoin="round"/>
<path d="M374.758 54.6417L394.289 43.3638" stroke="#21214B" stroke-opacity="0.07" stroke-miterlimit="10" stroke-linecap="round" stroke-linejoin="round"/>
<path d="M374.758 62.8477L394.289 51.5698" stroke="#21214B" stroke-opacity="0.07" stroke-miterlimit="10" stroke-linecap="round" stroke-linejoin="round"/>
<path d="M374.758 71.0543L394.289 59.7764" stroke="#21214B" stroke-opacity="0.07" stroke-miterlimit="10" stroke-linecap="round" stroke-linejoin="round"/>
<path d="M381.358 80.6223C381.358 78.5174 379.877 77.6651 378.058 78.7149C376.234 79.7699 374.758 82.327 374.758 84.4318C374.758 86.5367 376.234 87.389 378.058 86.334C379.877 85.2842 381.358 82.7271 381.358 80.6223Z" stroke="#21214B" stroke-opacity="0.07" stroke-miterlimit="10" stroke-linecap="round" stroke-linejoin="round"/>
<path d="M394.71 21.1768L320.213 64.1888C317.5 65.7583 315.297 69.9629 315.297 73.5853V129.741" stroke="#21214B" stroke-opacity="0.07" stroke-miterlimit="10" stroke-linecap="round" stroke-linejoin="round"/>
<path d="M393.421 11.3174C393.421 11.3174 393.416 11.3174 393.369 11.2914C393.369 11.2914 393.369 11.2863 393.364 11.2863C393.364 11.2863 393.26 11.2291 393.167 11.1823C393.11 11.1511 393.032 11.1095 392.943 11.0628L392.881 11.0316C392.039 10.6054 390.963 10.6834 389.794 11.359L308.447 58.3261C305.729 59.8957 303.525 64.1002 303.525 67.7227V106.593V129.975C303.525 130.214 303.536 130.448 303.557 130.671C303.697 132.36 304.373 133.535 305.36 134.023L317.064 139.855L317.126 139.886" stroke="#21214B" stroke-opacity="0.07" stroke-miterlimit="10" stroke-linecap="round" stroke-linejoin="round"/>
<path d="M404.646 16.8942L392.941 11.063" stroke="#21214B" stroke-opacity="0.07" stroke-miterlimit="10" stroke-linecap="round" stroke-linejoin="round"/>
<path d="M303.555 130.671L276.197 146.279V122.184L303.524 106.593" stroke="#21214B" stroke-opacity="0.07" stroke-miterlimit="10" stroke-linecap="round" stroke-linejoin="round"/>
<path d="M456.617 47.9841L432.471 34.0452V11.2866L456.617 25.2255V47.9841Z" stroke="#21214B" stroke-opacity="0.07" stroke-miterlimit="10" stroke-linecap="round" stroke-linejoin="round"/>
<path d="M500.425 84.8115L527.529 87.0463L554.497 53.3112L554.357 17.3466L527.253 15.1118L500.285 48.8416L500.425 84.8115Z" stroke="#21214B" stroke-opacity="0.07" stroke-miterlimit="10" stroke-linecap="round" stroke-linejoin="round"/>
<path d="M527.253 15.1117L511.303 5.25781" stroke="#21214B" stroke-opacity="0.07" stroke-miterlimit="10" stroke-linecap="round" stroke-linejoin="round"/>
<path d="M500.284 48.8417L484.334 38.9878" stroke="#21214B" stroke-opacity="0.07" stroke-miterlimit="10" stroke-linecap="round" stroke-linejoin="round"/>
<path d="M500.424 84.8114L484.474 74.9575L484.334 38.9876L511.302 5.25781L538.406 7.49261L554.356 17.3465" stroke="#21214B" stroke-opacity="0.07" stroke-miterlimit="10" stroke-linecap="round" stroke-linejoin="round"/>
<path d="M528.932 60.4937L540.989 39.6062L536.795 37.1895L528.932 50.8113L517.706 44.3304L513.512 51.5961L528.932 60.4937Z" stroke="#21214B" stroke-opacity="0.07" stroke-miterlimit="10" stroke-linecap="round" stroke-linejoin="round"/>
<path d="M568.838 126.773C566.302 120.339 564.686 112.533 564.686 103.09C564.686 59.4177 606.918 37.3452 634.749 37.3452C662.45 37.3452 686.82 53.9815 696.985 65.0151C697.037 65.0671 697.089 65.1243 697.136 65.1762C699.808 68.1022 702.157 71.1322 704.215 74.2609C722.119 101.499 718.252 136.399 718.252 178.434C718.252 209.404 704.755 229.579 678.457 233.425C677.543 233.56 676.612 233.675 675.667 233.768C673.468 233.992 671.187 234.101 668.822 234.101C628.72 234.101 596.529 206.244 592.47 178.569" stroke="#21214B" stroke-opacity="0.07" stroke-miterlimit="10" stroke-linecap="round" stroke-linejoin="round"/>
<path d="M641.908 131.123C660.067 134.975 680.892 133.415 696.9 126.451C695.33 131.025 693.922 136.788 693.922 142.692C693.922 155.971 701.785 161.132 708.422 166.293C705.719 172.441 700.559 177.602 697.851 179.572" stroke="#21214B" stroke-opacity="0.07" stroke-miterlimit="10" stroke-linecap="round" stroke-linejoin="round"/>
<path d="M586.412 110.995C588.33 110.08 590.575 109.862 593.023 110.444C594.426 110.782 595.902 111.374 597.42 112.252C599.135 113.24 600.788 114.518 602.357 116.031C609.758 123.156 615.168 135.385 615.168 146.169V157.733C615.168 165.264 612.533 170.445 608.422 172.41" stroke="#21214B" stroke-opacity="0.07" stroke-miterlimit="10" stroke-linecap="round" stroke-linejoin="round"/>
<path d="M597.289 177.727C595.85 178.418 594.223 178.709 592.471 178.569C590.543 178.413 588.459 177.732 586.282 176.474C585.757 176.173 585.242 175.84 584.728 175.487C575.653 169.198 568.533 154.932 568.533 142.558V130.994C568.533 129.492 568.637 128.083 568.84 126.779C568.84 126.774 568.84 126.774 568.84 126.774C569.645 121.519 571.989 117.886 575.279 116.317" stroke="#21214B" stroke-opacity="0.07" stroke-miterlimit="10" stroke-linecap="round" stroke-linejoin="round"/>
<path d="M575.4 116.26C578.41 114.882 582.183 115.205 586.283 117.574C591.184 120.402 595.623 125.615 598.835 131.752C602.046 137.885 604.032 144.953 604.032 151.486V163.055C604.032 170.56 601.412 175.736 597.327 177.706" stroke="#21214B" stroke-opacity="0.07" stroke-miterlimit="10" stroke-linecap="round" stroke-linejoin="round"/>
<path d="M596.38 152.369V161.808C596.38 168.236 591.853 170.851 586.282 167.639C580.716 164.422 576.184 156.579 576.184 150.145V140.707V132.241C576.184 125.807 580.716 123.192 586.282 126.409C591.853 129.621 596.38 137.469 596.38 143.898V152.369Z" stroke="#21214B" stroke-opacity="0.07" stroke-miterlimit="10" stroke-linecap="round" stroke-linejoin="round"/>
<path d="M576.184 140.707L596.38 152.37" stroke="#21214B" stroke-opacity="0.07" stroke-miterlimit="10" stroke-linecap="round" stroke-linejoin="round"/>
<path d="M575.279 116.317L575.399 116.259L586.412 110.995" stroke="#21214B" stroke-opacity="0.07" stroke-miterlimit="10" stroke-linecap="round" stroke-linejoin="round"/>
<path d="M597.291 177.727L597.327 177.706L608.423 172.41" stroke="#21214B" stroke-opacity="0.07" stroke-miterlimit="10" stroke-linecap="round" stroke-linejoin="round"/>
<path d="M602.355 116.031C606.352 106.161 616.632 86.62 636.054 84.2448C662.186 81.0486 671.187 102.534 678.734 98.1785C686.28 93.8233 673.505 79.5985 688.894 71.7612C693.795 69.2613 699.164 70.888 704.21 74.2662" stroke="#21214B" stroke-opacity="0.07" stroke-miterlimit="10" stroke-linecap="round" stroke-linejoin="round"/>
<path d="M593.021 110.449C597.023 98.9786 609.668 68.4554 631.122 67.9825C657.539 67.4056 663.927 85.1125 670.605 81.3393C677.284 77.5661 669.732 62.4683 677.575 58.4041C681.161 56.5435 689.263 60.3478 696.986 65.0149" stroke="#21214B" stroke-opacity="0.07" stroke-miterlimit="10" stroke-linecap="round" stroke-linejoin="round"/>
<path d="M584.727 175.487C585.907 192.092 585.002 207.356 582.544 220.786C580.626 231.248 577.763 240.597 574.213 248.591C573.652 249.848 561.896 271.365 591.91 287.518C617.194 301.129 653.476 303.962 673.88 292.185C681.489 287.793 685.755 282.092 686.826 275.928C687.138 274.156 686.847 272.331 686.098 270.7C680.33 258.133 677.087 246.735 675.668 233.768" stroke="#21214B" stroke-opacity="0.07" stroke-miterlimit="10" stroke-linecap="round" stroke-linejoin="round"/>
<path d="M533.682 261.989C533.682 250.098 540.677 238.919 555.042 230.624C562.916 226.076 572.286 222.813 582.546 220.786" stroke="#21214B" stroke-opacity="0.07" stroke-miterlimit="10" stroke-linecap="round" stroke-linejoin="round"/>
<path d="M678.463 233.425C681.56 234.901 684.58 236.481 687.496 238.165C710.171 251.257 721.911 267.862 721.911 283.272" stroke="#21214B" stroke-opacity="0.07" stroke-miterlimit="10" stroke-linecap="round" stroke-linejoin="round"/>
<path d="M644.642 345.149C618.406 344.884 590.326 338.117 568.097 325.285C567.718 325.067 567.339 324.844 566.965 324.62C545.032 311.638 533.682 295.324 533.682 280.179V261.989C533.682 265.04 534.144 268.137 535.054 271.245C538.759 283.833 549.912 296.597 568.097 307.095C608.282 330.296 667.582 333.669 700.553 314.636C711.244 308.462 717.855 300.682 720.537 292.205C721.451 289.3 721.909 286.306 721.909 283.271V301.461C721.909 313.353 714.913 324.532 700.553 332.827C690.128 338.845 677.072 342.623 662.822 344.24" stroke="#21214B" stroke-opacity="0.07" stroke-miterlimit="10" stroke-linecap="round" stroke-linejoin="round"/>
<path d="M548.469 461.728V430.456" stroke="#21214B" stroke-opacity="0.07" stroke-miterlimit="10" stroke-linecap="round" stroke-linejoin="round"/>
<path d="M566.636 396.523V451.234L548.467 461.727L491.35 428.751" stroke="#21214B" stroke-opacity="0.07" stroke-miterlimit="10" stroke-linecap="round" stroke-linejoin="round"/>
<path d="M498.704 383.749L498.709 383.739L498.782 383.604C503.802 374.228 509.519 363.553 509.519 363.553L566.636 396.524L548.467 430.456L491.35 397.48C491.35 397.48 492.483 395.37 494.182 392.194" stroke="#21214B" stroke-opacity="0.07" stroke-miterlimit="10" stroke-linecap="round" stroke-linejoin="round"/>
<path d="M503.836 387.294C507.443 380.636 512.084 372.061 512.084 372.061L519.921 376.629L558.308 399.018L551.858 410.93L545.907 421.928L504.439 397.745L503.95 397.459" stroke="#21214B" stroke-opacity="0.07" stroke-miterlimit="10" stroke-linecap="round" stroke-linejoin="round"/>
<path d="M491.35 428.752V397.48" stroke="#21214B" stroke-opacity="0.07" stroke-miterlimit="10" stroke-linecap="round" stroke-linejoin="round"/>
<path d="M519.873 376.707L522.856 387.756L535.485 394.008L539.835 406.44L551.857 410.931L551.867 410.936" stroke="#21214B" stroke-opacity="0.07" stroke-miterlimit="10" stroke-linecap="round" stroke-linejoin="round"/>
<path d="M539.954 441.246C539.954 443.844 538.124 444.899 535.869 443.6C533.618 442.301 531.789 439.13 531.789 436.532C531.789 433.928 533.618 432.873 535.869 434.172C538.124 435.477 539.954 438.642 539.954 441.246Z" stroke="#21214B" stroke-opacity="0.07" stroke-miterlimit="10" stroke-linecap="round" stroke-linejoin="round"/>
<path d="M463.729 397.641C464.316 399.725 465.09 401.877 465.917 404.143C468.557 411.367 471.748 419.766 471.202 430.732C470.63 442.134 474.518 453.158 478.192 461.343C478.198 461.359 478.208 461.374 478.213 461.39C478.567 462.17 479.388 462.622 480.23 462.497C480.697 462.429 481.103 462.201 481.399 461.863C481.69 461.53 481.867 461.094 481.872 460.621C481.877 460.335 481.877 460.049 481.882 459.769C482.163 432.005 483.301 411.502 485.697 387.86C485.879 386.067 486.066 384.258 486.264 382.424" stroke="#21214B" stroke-opacity="0.07" stroke-miterlimit="10" stroke-linecap="round" stroke-linejoin="round"/>
<path d="M453.433 444.276C453.235 445.102 453.043 445.939 452.845 446.786C452.617 447.773 451.754 448.527 450.746 448.522C449.758 448.511 448.927 447.841 448.698 446.916C448.688 446.885 448.677 446.848 448.672 446.817C447.872 442.846 445.824 431.937 446.307 426.174C446.9 419.043 454.623 404.933 455.215 401.669C455.813 398.4 454.477 392.756 454.774 389.19C454.883 387.839 455.298 386.633 455.797 385.36C456.619 383.281 457.674 381.015 458.043 377.606C458.635 372.107 456.702 365.72 455.215 360.372C453.734 355.024 451.655 349.38 455.662 343.886C457.783 340.981 462.564 341.189 466.597 342.031" stroke="#21214B" stroke-opacity="0.07" stroke-miterlimit="10" stroke-linecap="round" stroke-linejoin="round"/>
<path d="M465.914 404.143C460.816 416.668 457.24 428.18 453.436 444.275" stroke="#21214B" stroke-opacity="0.07" stroke-miterlimit="10" stroke-linecap="round" stroke-linejoin="round"/>
<path d="M476.346 345.009C476.699 345.128 477.073 345.258 477.468 345.399C481.434 346.817 487.083 349.271 489.5 352.394C492.8 356.661 496.563 375.776 497.665 381.654C497.81 382.439 498.174 383.156 498.709 383.738C498.917 383.983 499.167 384.201 499.442 384.388L503.761 387.392V387.397L511.817 393L512.05 393.161L519.223 391.529L514.659 400.011C514.659 400.011 511.261 399.647 507.316 398.608C506.375 398.363 505.403 398.077 504.437 397.745C502.857 397.209 501.303 396.56 499.936 395.78C497.94 394.637 495.986 393.499 494.182 392.194C490.856 389.788 488.076 386.831 486.589 382.309C486.579 382.288 486.569 382.262 486.563 382.242C484.277 375.231 481.668 362.508 481.668 362.508" stroke="#21214B" stroke-opacity="0.07" stroke-miterlimit="10" stroke-linecap="round" stroke-linejoin="round"/>
<path d="M455.799 385.36C458.714 388.915 464.665 393.983 474.53 393.198C478.978 392.85 482.689 390.703 485.698 387.86" stroke="#21214B" stroke-opacity="0.07" stroke-miterlimit="10" stroke-linecap="round" stroke-linejoin="round"/>
<path d="M511.817 393C511.199 395.224 509.4 397.272 507.316 398.608" stroke="#21214B" stroke-opacity="0.07" stroke-linecap="round" stroke-linejoin="round"/>
<path d="M477.471 345.399C477.227 345.633 476.962 345.846 476.676 346.028C475.621 346.714 474.28 347.057 472.737 347.057C469.073 347.057 467.03 344.448 466.604 342.031C466.594 341.99 466.583 341.948 466.578 341.906C468.309 340.727 469.65 337.307 470.279 335.431" stroke="#21214B" stroke-opacity="0.07" stroke-linecap="round" stroke-linejoin="round"/>
<path d="M475.178 336.927C475.178 336.969 475.178 337.016 475.178 337.057C475.173 339.931 475.547 342.389 476.342 345.009H476.347C476.446 345.347 476.555 345.685 476.675 346.028" stroke="#21214B" stroke-opacity="0.07" stroke-linecap="round" stroke-linejoin="round"/>
<path d="M475.178 337.057C475.344 337.073 475.51 337.078 475.677 337.078C478.478 337.078 481.108 335.264 481.108 331.787C481.108 328.861 479.32 325.608 476.747 324.423" stroke="#21214B" stroke-opacity="0.07" stroke-linecap="round" stroke-linejoin="round"/>
<path d="M476.745 324.423C478.481 322.999 480.607 321.746 480.607 319.642C480.607 317.63 477.951 315.868 475.394 314.751C474.183 321.705 466.133 320.79 466.133 329.08C466.133 331.845 468.071 334.407 470.275 335.431C470.925 335.732 471.595 335.898 472.25 335.898C474.506 335.898 476.148 334.064 476.148 332.286C476.148 330.805 474.537 329.547 474.537 327.957C474.537 326.471 475.545 325.405 476.745 324.423Z" stroke="#21214B" stroke-opacity="0.07" stroke-linejoin="round"/>
<path d="M448.666 446.926C448.656 447.404 448.547 447.893 448.547 448.376C448.547 449.452 449.929 451.817 451.696 451.817C454.809 451.817 458.65 445.653 458.65 443.896C458.65 443.782 458.645 443.672 458.619 443.563C458.666 443.522 458.713 443.475 458.759 443.428C458.707 443.381 458.655 443.335 458.603 443.283C456.873 443.387 455.127 443.787 453.437 444.275H453.432" stroke="#21214B" stroke-opacity="0.07" stroke-linecap="round" stroke-linejoin="round"/>
<path d="M478.18 461.348C477.613 461.982 477.354 462.741 477.354 463.469C477.354 464.986 478.466 466.39 480.238 466.39C483.97 466.39 489.447 460.174 489.468 457.949C489.343 457.788 489.219 457.638 489.084 457.487C488.938 457.476 488.798 457.471 488.652 457.471C486.423 457.471 484.011 458.869 481.88 459.768H481.875" stroke="#21214B" stroke-opacity="0.07" stroke-linecap="round" stroke-linejoin="round"/>
<path d="M675.387 527.129L754.317 481.56" stroke="#21214B" stroke-opacity="0.07" stroke-miterlimit="10" stroke-linecap="round" stroke-linejoin="round"/>
<path d="M763.252 457.056V392.854L716.098 436.838L680.461 443.73L664.474 505.124L624.975 503.186L601.312 569.897L657.188 537.638" stroke="#21214B" stroke-opacity="0.07" stroke-miterlimit="10" stroke-linecap="round" stroke-linejoin="round"/>
<path d="M601.312 569.897L584.006 560.953L597.565 522.727L607.669 494.241L647.167 496.185L651.699 478.769V478.764" stroke="#21214B" stroke-opacity="0.07" stroke-miterlimit="10" stroke-linecap="round" stroke-linejoin="round"/>
<path d="M653.666 471.228L663.151 434.786L698.788 427.894L745.948 383.91L763.254 392.855" stroke="#21214B" stroke-opacity="0.07" stroke-miterlimit="10" stroke-linecap="round" stroke-linejoin="round"/>
<path d="M663.15 434.786L680.462 443.73" stroke="#21214B" stroke-opacity="0.07" stroke-miterlimit="10" stroke-linecap="round" stroke-linejoin="round"/>
<path d="M607.67 494.241L624.977 503.186" stroke="#21214B" stroke-opacity="0.07" stroke-miterlimit="10" stroke-linecap="round" stroke-linejoin="round"/>
<path d="M653.666 471.228C650.324 466.551 646.899 461.753 643.406 456.853C643.734 465.043 643.723 473.151 643.406 481.181L644.451 480.921C646.842 480.068 649.258 479.351 651.701 478.769C653.837 478.255 655.999 477.849 658.172 477.543C656.685 475.464 655.183 473.359 653.666 471.228Z" stroke="#21214B" stroke-opacity="0.07" stroke-miterlimit="10" stroke-linecap="round" stroke-linejoin="round"/>
<path d="M620.637 443.709L621.681 445.175C626.167 451.957 630.74 458.36 635.402 464.394C630.662 465.558 625.725 466.774 620.637 468.032C620.964 460.22 620.959 452.108 620.637 443.709Z" stroke="#21214B" stroke-opacity="0.07" stroke-miterlimit="10" stroke-linecap="round" stroke-linejoin="round"/>
<path d="M597.867 454.888L598.912 454.628C603.397 453.028 607.971 451.905 612.632 451.25C607.893 444.613 602.96 437.701 597.867 430.565C598.195 438.756 598.189 446.859 597.867 454.888Z" stroke="#21214B" stroke-opacity="0.07" stroke-miterlimit="10" stroke-linecap="round" stroke-linejoin="round"/>
<path d="M657.188 537.638C657.183 537.81 657.178 537.981 657.178 538.158C657.178 545.034 662.749 550.605 669.625 550.605C676.496 550.605 682.067 545.034 682.067 538.158C682.067 533.366 679.359 529.208 675.389 527.129C673.663 526.225 671.704 525.716 669.625 525.716C662.926 525.716 657.464 531.007 657.188 537.638Z" stroke="#21214B" stroke-opacity="0.07" stroke-miterlimit="10" stroke-linecap="round" stroke-linejoin="round"/>
<path d="M718.191 551.406C718.191 547.196 714.777 543.781 710.567 543.781C706.352 543.781 702.938 547.196 702.938 551.406C702.938 555.615 706.352 559.03 710.567 559.03C714.777 559.03 718.191 555.615 718.191 551.406Z" stroke="#21214B" stroke-opacity="0.07" stroke-miterlimit="10" stroke-linecap="round" stroke-linejoin="round"/>
<path d="M437.554 142.048C437.637 142.048 437.715 142.048 437.793 142.043C442.881 141.918 446.01 139.231 446.01 133.259C446.01 132.402 445.937 131.539 445.823 130.676C432.565 130.422 440.631 104.831 425.72 104.831C421.079 104.831 418.34 107.055 418.34 112.148C418.34 113.276 418.563 113.998 418.938 114.534C420.091 116.192 422.664 116.067 424.389 120.739C424.551 121.186 424.686 121.685 424.79 122.231C424.909 122.813 425.003 123.452 425.081 124.128C425.907 131.035 425.538 142.048 437.414 142.048C437.46 142.048 437.507 142.048 437.554 142.048Z" stroke="#21214B" stroke-opacity="0.07" stroke-miterlimit="10" stroke-linecap="round" stroke-linejoin="round"/>
<path d="M424.79 122.231C421.157 121.966 418.693 120.272 418.693 116.577C418.693 115.963 418.782 115.251 418.938 114.534" stroke="#21214B" stroke-opacity="0.07" stroke-miterlimit="10" stroke-linecap="round" stroke-linejoin="round"/>
<path d="M420.695 151.086C419.458 149.272 418.565 146.387 417.359 141.965C417.213 142.23 417.057 142.484 416.907 142.744C415.893 144.444 414.1 146.237 412.24 147.759C409.563 149.937 406.731 151.564 405.764 151.564C401.518 151.564 392.199 144.121 390.567 142.354C389.107 140.764 387.542 139.35 385.822 138.327C385.635 138.217 385.593 138.072 385.593 137.932C385.593 137.802 385.625 137.682 385.625 137.583C385.625 135.193 384.564 132.111 384.564 132.111C384.564 129.59 389.439 135.718 392.812 137.526C397.23 139.896 402.219 141.268 405.951 144.324C406.606 142.77 407.198 141.398 407.754 140.187C412.021 130.889 414.069 130.692 424.988 124.138" stroke="#21214B" stroke-opacity="0.07" stroke-miterlimit="10" stroke-linecap="round" stroke-linejoin="round"/>
<path d="M437.794 142.048C437.243 144.948 436.38 147.635 434.967 149.703C433.278 152.214 430.788 153.814 427.135 153.814C423.912 153.814 422.083 153.123 420.695 151.091" stroke="#21214B" stroke-opacity="0.07" stroke-miterlimit="10" stroke-linecap="round" stroke-linejoin="round"/>
<path d="M412.237 147.76C411.244 144.974 409.696 142.412 407.752 140.188" stroke="#21214B" stroke-opacity="0.07" stroke-miterlimit="10" stroke-linecap="round" stroke-linejoin="round"/>
<path d="M434.978 149.709C441.683 159.921 444.91 172.005 445.918 184.244C443.346 188.589 439.718 191.105 435.077 192.342C432.494 193.038 429.589 193.339 426.382 193.339C426.086 193.339 425.795 193.334 425.504 193.324C420.894 193.21 417.1 192.144 413.716 190.247C411.606 189.073 409.657 187.576 407.766 185.783C409.86 168.091 416.014 158.544 420.696 151.091V151.086" stroke="#21214B" stroke-opacity="0.07" stroke-miterlimit="10" stroke-linecap="round" stroke-linejoin="round"/>
<path d="M425.5 193.323C425.422 194.082 425.355 194.737 425.355 195.179C425.355 195.345 425.828 197.642 426.358 200.464C427.023 204.025 427.782 208.432 427.782 210.464C427.782 217.054 425.235 223.062 425.235 228.082C425.235 228.784 425.256 229.475 425.256 230.172C425.256 237.941 423.598 230.364 421.779 230.364C419.409 230.364 417.075 233.186 417.075 231.195C417.075 231.195 419.082 228.768 419.082 224.777C419.082 214.263 414.638 199.841 413.713 190.252" stroke="#21214B" stroke-opacity="0.07" stroke-miterlimit="10" stroke-linecap="round" stroke-linejoin="round"/>
<path d="M426.354 200.46L426.359 200.465C452.641 220.271 449.284 224.538 449.284 224.538C449.46 224.538 449.767 224.257 449.767 224.257C450.297 222.49 450.858 218.515 453.327 218.515C453.925 218.515 454.585 218.66 455.162 218.66C444.861 209.186 441.545 198.786 435.074 192.347" stroke="#21214B" stroke-opacity="0.07" stroke-miterlimit="10" stroke-linecap="round" stroke-linejoin="round"/>
<path d="M576.923 318.821C577.458 319.881 577.78 321.024 577.78 322.074C577.78 324.48 576.086 325.457 574.002 324.257C573.097 323.737 572.271 322.89 571.621 321.908C570.774 320.614 570.229 319.086 570.229 317.719C570.229 315.312 571.918 314.335 574.002 315.541C575.176 316.217 576.231 317.448 576.923 318.821Z" stroke="#21214B" stroke-opacity="0.07" stroke-miterlimit="10" stroke-linecap="round" stroke-linejoin="round"/>
<path d="M57.7578 633.802L100.562 657.106L143.366 633.802V608.227" stroke="#21214B" stroke-opacity="0.07" stroke-miterlimit="10" stroke-linecap="round" stroke-linejoin="round"/>
</svg>
