<svg width="52" height="52" viewBox="0 0 52 52" fill="none" xmlns="http://www.w3.org/2000/svg">
<g clip-path="url(#clip0_287_1987)">
<path d="M21.7527 9.32758C26.5085 7.88241 31.7518 8.84224 35.5327 11.8756C38.5357 14.2762 40.2733 17.6952 40.412 21.2789L40.4185 21.7382L40.6157 21.7447C45.599 21.9766 49.5922 25.9936 49.824 30.9964L49.8327 31.4536C49.8327 36.6687 45.7485 40.9262 40.6135 41.1646L40.1585 41.1754H14.4228L13.9418 41.1581C7.57185 40.9197 2.42168 35.9602 2.17685 29.7549L2.16602 29.2869C2.16602 23.3351 6.67268 18.4319 12.5313 17.5501L12.7783 17.5154L12.93 17.1232C14.3665 13.6132 17.3847 10.8269 21.2262 9.50091L21.7548 9.32758H21.7527Z" fill="url(#paint0_linear_287_1987)"/>
</g>
<defs>
<linearGradient id="paint0_linear_287_1987" x1="2.16602" y1="15.8911" x2="47.4268" y2="44.9259" gradientUnits="userSpaceOnUse">
<stop stop-color="#6AE678"/>
<stop offset="1" stop-color="#38B5E7"/>
</linearGradient>
<clipPath id="clip0_287_1987">
<rect width="52" height="52" fill="white"/>
</clipPath>
</defs>
</svg>
