<svg width="17" height="17" viewBox="0 0 17 17" fill="none" xmlns="http://www.w3.org/2000/svg">
<g clip-path="url(#clip0_206_675)">
<path d="M9.95789 2.41522C8.67793 2.95851 7.83643 4.15276 7.79322 5.51772L7.7918 5.64663L7.61968 5.63034C5.92535 5.4398 4.4336 4.55934 3.40935 3.12922C3.33999 3.03229 3.2473 2.95443 3.13986 2.90285C3.03241 2.85127 2.91369 2.82764 2.79469 2.83414C2.67568 2.84063 2.56024 2.87705 2.45905 2.94003C2.35786 3.003 2.2742 3.09048 2.2158 3.19438L2.1471 3.32613L2.11239 3.39626C1.6031 4.44813 1.26947 5.72667 1.39201 7.08172L1.41326 7.27509C1.61372 8.87805 2.47576 10.2607 4.09005 11.2977L4.2126 11.3735L4.15522 11.404C3.22376 11.8736 2.37164 12.0783 1.44443 12.0415C0.69643 12.0131 0.42018 13.0133 1.07751 13.3717C3.6261 14.7608 6.36239 15.1893 8.72185 14.505C11.5977 13.6692 13.7878 11.5138 14.6258 8.53167L14.7158 8.18105C14.8843 7.47767 14.9793 6.76013 14.9998 6.03905L15.0019 5.80388L15.2803 5.25209L15.592 4.64151L15.7436 4.33409L15.8271 4.15913C16.0148 3.75892 16.1501 3.42742 16.2337 3.14622L16.2436 3.10655L16.2493 3.0938C16.4051 2.67376 16.1317 2.13188 15.5828 2.13188L15.4963 2.13684C15.4404 2.14372 15.3855 2.15727 15.3327 2.17722L15.2718 2.20413C15.0697 2.3023 14.8615 2.38747 14.6485 2.45913L14.3963 2.54059L14.2043 2.59726L13.6575 2.74884C12.7112 1.95692 11.4305 1.86059 10.1073 2.35642L9.95789 2.41522Z" fill="white"/>
</g>
<defs>
<clipPath id="clip0_206_675">
<rect width="17" height="17" fill="white"/>
</clipPath>
</defs>
</svg>
